<?xml version="1.0" standalone="no"?>
<!DOCTYPE svg PUBLIC "-//W3C//DTD SVG 20010904//EN"
 "http://www.w3.org/TR/2001/REC-SVG-20010904/DTD/svg10.dtd">
<svg version="1.0" xmlns="http://www.w3.org/2000/svg"
 width="294.000000pt" height="294.000000pt" viewBox="0 0 294.000000 294.000000"
 preserveAspectRatio="xMidYMid meet">
<metadata>
Created by potrace 1.14, written by Peter Selinger 2001-2017
</metadata>
<g transform="translate(0.000000,294.000000) scale(0.100000,-0.100000)"
fill="#000000" stroke="none">
<path d="M220 2931 c-92 -28 -165 -97 -199 -185 -19 -50 -20 -85 -20 -1281 l0
-1230 28 -58 c35 -72 67 -106 134 -143 l52 -29 1240 -2 c1236 -2 1240 -2 1294
19 74 28 142 97 170 171 l21 58 0 1207 c0 1313 2 1270 -56 1354 -27 39 -107
105 -117 97 -2 -2 -12 3 -22 11 -16 13 -172 15 -1259 17 -683 1 -1252 -2
-1266 -6z"/>
</g>
</svg>
