<?xml version="1.0" standalone="no"?>
<!DOCTYPE svg PUBLIC "-//W3C//DTD SVG 20010904//EN"
 "http://www.w3.org/TR/2001/REC-SVG-20010904/DTD/svg10.dtd">
<svg version="1.0" xmlns="http://www.w3.org/2000/svg"
 width="294.000000pt" height="294.000000pt" viewBox="0 0 294.000000 294.000000"
 preserveAspectRatio="xMidYMid meet">
<metadata>
Created by potrace 1.14, written by Peter Selinger 2001-2017
</metadata>
<g transform="translate(0.000000,294.000000) scale(0.100000,-0.100000)"
fill="#000000" stroke="none">
<path d="M2497 2744 c-3 -5 4 -16 16 -23 12 -8 19 -10 15 -6 -4 5 0 14 10 22
15 13 15 13 -5 4 -16 -8 -22 -8 -25 1 -3 8 -7 8 -11 2z"/>
<path d="M2568 2732 c3 -9 1 -13 -5 -9 -5 3 -18 -3 -27 -15 -15 -18 -16 -20
-2 -15 8 3 19 0 23 -6 6 -10 12 -9 26 5 9 10 13 18 8 18 -6 0 -13 -5 -16 -10
-7 -12 -25 -4 -25 11 0 6 4 8 9 4 6 -3 14 3 20 13 7 14 6 19 -4 19 -7 0 -11
-7 -7 -15z"/>
<path d="M2599 2733 c-10 -11 -10 -14 -1 -9 6 4 12 2 12 -3 0 -6 5 -11 11 -11
8 0 9 4 0 13 -6 8 -8 17 -4 20 3 4 4 7 1 7 -3 0 -12 -8 -19 -17z"/>
<path d="M2681 2738 c-1 -12 -6 -15 -18 -11 -15 5 -16 3 -5 -8 15 -16 37 1 29
23 -4 9 -6 8 -6 -4z"/>
<path d="M2700 2741 c0 -13 35 -32 44 -24 3 3 6 11 6 17 0 6 -4 5 -9 -2 -6
-11 -11 -10 -25 3 -9 9 -16 12 -16 6z"/>
<path d="M2770 2733 c5 -12 15 -25 22 -29 7 -5 8 -3 4 5 -5 8 -2 11 9 9 10 -2
20 4 22 12 3 9 1 11 -4 5 -12 -15 -36 -12 -51 5 -11 13 -11 12 -2 -7z"/>
<path d="M2850 2732 c6 -13 14 -21 18 -18 3 4 -2 14 -12 24 -18 16 -18 16 -6
-6z"/>
<path d="M2890 2744 c0 -5 9 -15 20 -21 15 -10 21 -10 26 0 4 6 3 9 -1 4 -5
-4 -17 0 -27 10 -10 9 -18 12 -18 7z"/>
<path d="M2361 2701 c-20 -24 -21 -25 -16 -3 4 12 3 22 -2 22 -16 0 -12 -38 5
-52 11 -9 14 -10 8 0 -4 6 -3 12 3 12 5 0 12 9 16 19 4 13 12 17 25 14 11 -3
20 -3 20 0 0 2 -9 7 -19 10 -12 3 -26 -5 -40 -22z"/>
<path d="M2461 2714 c12 -15 11 -16 -11 -10 -20 6 -22 5 -8 -4 18 -11 48 -4
48 12 0 5 -4 6 -10 3 -5 -3 -10 -1 -10 4 0 6 -5 11 -11 11 -8 0 -7 -6 2 -16z"/>
<path d="M2273 2705 c-3 -9 -3 -18 -1 -21 3 -3 8 4 11 16 6 23 -1 27 -10 5z"/>
<path d="M2876 2705 c-9 -26 -7 -32 5 -12 6 10 9 21 6 23 -2 3 -7 -2 -11 -11z"/>
<path d="M2215 2699 c-9 -14 0 -22 28 -26 17 -2 19 -1 7 6 -8 5 -18 7 -24 4
-5 -4 -7 1 -3 10 7 19 2 23 -8 6z"/>
<path d="M2305 2700 c3 -5 8 -10 11 -10 2 0 4 5 4 10 0 6 -5 10 -11 10 -5 0
-7 -4 -4 -10z"/>
<path d="M2634 2699 c-3 -6 0 -15 7 -20 22 -14 36 -10 17 5 -10 7 -15 16 -11
19 3 4 4 7 0 7 -3 0 -9 -5 -13 -11z"/>
<path d="M2680 2700 c-8 -5 -10 -10 -5 -10 6 0 17 5 25 10 8 5 11 10 5 10 -5
0 -17 -5 -25 -10z"/>
<path d="M2745 2700 c-4 -6 -10 -8 -15 -5 -4 3 -19 -4 -31 -16 -13 -11 -19
-18 -13 -15 7 3 14 -1 18 -9 3 -8 12 -15 20 -15 10 0 13 -6 10 -17 -5 -15 -4
-15 4 -3 12 16 7 30 -13 30 -17 0 -27 27 -11 33 6 3 20 -1 31 -9 10 -8 15 -14
11 -14 -5 0 -3 -6 3 -14 8 -10 9 -16 1 -21 -5 -3 -10 -11 -10 -17 0 -6 10 2
22 17 21 27 21 28 3 41 -10 8 -23 14 -28 14 -4 0 -6 4 -2 10 3 5 13 6 22 3 11
-4 14 -3 9 5 -9 15 -23 15 -31 2z m35 -50 c0 -5 -2 -10 -4 -10 -3 0 -8 5 -11
10 -3 6 -1 10 4 10 6 0 11 -4 11 -10z"/>
<path d="M2825 2701 c-3 -5 0 -13 5 -16 7 -5 5 -12 -7 -20 -15 -12 -16 -16 -4
-27 12 -11 13 -10 7 6 -5 14 -2 17 9 12 9 -3 13 -2 10 4 -3 6 -1 10 6 10 7 0
4 7 -7 16 -17 14 -17 15 -1 10 11 -3 16 -2 12 4 -8 13 -22 13 -30 1z"/>
<path d="M2905 2701 c3 -5 -1 -11 -7 -14 -7 -2 -11 -7 -8 -10 3 -3 13 0 23 8
16 11 16 13 2 19 -9 3 -14 2 -10 -3z"/>
<path d="M2390 2689 c0 -5 5 -7 10 -4 6 3 10 8 10 11 0 2 -4 4 -10 4 -5 0 -10
-5 -10 -11z"/>
<path d="M2290 2685 c0 -4 7 -13 17 -20 15 -11 14 -14 -5 -33 -12 -12 -18 -22
-12 -22 10 0 46 49 39 53 -2 2 -12 9 -21 16 -10 7 -18 10 -18 6z"/>
<path d="M2414 2678 c-5 -8 -2 -9 10 -5 14 6 17 3 12 -8 -3 -9 -2 -13 4 -10 6
3 10 1 10 -6 0 -7 7 -4 16 7 15 19 16 19 10 -1 -5 -17 -3 -16 13 5 11 14 17
27 15 30 -3 2 -9 -2 -14 -10 -6 -8 -10 -11 -10 -6 0 5 -6 3 -14 -3 -10 -9 -15
-8 -20 4 -6 18 -22 20 -32 3z"/>
<path d="M2594 2682 c3 -6 1 -12 -6 -14 -7 -3 -5 -7 6 -11 11 -5 15 -3 10 5
-5 8 -2 9 9 5 24 -9 21 0 -4 14 -13 6 -19 7 -15 1z"/>
<path d="M2790 2680 c0 -5 5 -10 10 -10 6 0 10 5 10 10 0 6 -4 10 -10 10 -5 0
-10 -4 -10 -10z"/>
<path d="M2144 2664 c21 -15 20 -25 -1 -17 -14 5 -15 3 -6 -7 14 -16 32 -5 30
18 0 10 -9 18 -20 18 -16 0 -17 -2 -3 -12z"/>
<path d="M2181 2669 c-1 -9 6 -22 15 -29 12 -11 18 -10 30 3 8 9 11 15 8 12
-4 -3 -14 1 -23 8 -14 11 -14 10 -2 -5 9 -12 10 -18 2 -18 -6 0 -16 10 -21 23
-6 15 -9 17 -9 6z"/>
<path d="M2541 2670 c0 -8 6 -26 15 -40 l15 -25 -7 25 c-6 22 -5 23 10 11 10
-9 16 -10 16 -2 0 10 -6 12 -27 10 -4 0 -10 8 -14 18 -5 13 -8 14 -8 3z"/>
<path d="M2909 2663 c-13 -16 -12 -17 4 -4 16 13 21 21 13 21 -2 0 -10 -8 -17
-17z"/>
<path d="M2276 2658 c5 -8 2 -9 -9 -5 -24 9 -21 0 4 -14 13 -6 19 -7 15 -1 -3
6 -1 12 6 14 7 3 5 7 -6 11 -11 5 -15 3 -10 -5z"/>
<path d="M2370 2660 c0 -5 5 -10 10 -10 6 0 10 5 10 10 0 6 -4 10 -10 10 -5 0
-10 -4 -10 -10z"/>
<path d="M2871 2666 c3 -3 -5 -19 -20 -35 -23 -25 -27 -26 -37 -13 -10 14 -13
14 -28 0 -22 -23 -20 -35 3 -14 16 15 19 15 24 2 8 -20 37 -10 37 13 0 10 7 6
20 -14 11 -16 20 -26 20 -22 0 4 -7 19 -16 32 -15 23 -15 25 0 25 19 0 21 16
4 26 -7 4 -10 4 -7 0z"/>
<path d="M2407 2651 c2 -2 -5 -10 -14 -16 -14 -10 -20 -10 -31 2 -10 9 -18 11
-24 5 -14 -14 0 -35 18 -28 25 9 24 -11 -1 -22 -29 -14 -31 -25 -7 -43 9 -7
14 -9 10 -5 -4 5 -3 15 3 23 6 7 8 13 3 13 -5 0 2 7 14 16 12 8 20 19 17 24
-3 4 1 10 9 13 8 3 17 -1 20 -10 4 -9 9 -13 13 -10 3 4 12 -1 20 -11 14 -16
14 -16 9 1 -6 18 9 24 17 7 3 -6 4 -5 3 2 -2 7 -14 13 -27 13 -13 0 -31 7 -39
15 -8 9 -14 14 -13 11z m-52 -21 c3 -5 1 -10 -4 -10 -6 0 -11 5 -11 10 0 6 2
10 4 10 3 0 8 -4 11 -10z m5 -54 c0 -3 -4 -8 -10 -11 -5 -3 -10 -1 -10 4 0 6
5 11 10 11 6 0 10 -2 10 -4z"/>
<path d="M2632 2651 c-11 -7 -10 -9 3 -14 9 -4 14 -3 10 2 -3 5 1 12 7 14 7 3
9 6 3 6 -5 0 -16 -3 -23 -8z"/>
<path d="M2495 2640 c-8 -13 5 -13 25 0 13 8 13 10 -2 10 -9 0 -20 -4 -23 -10z"/>
<path d="M2658 2629 c-10 -10 -15 -19 -10 -19 10 1 42 26 42 34 0 11 -15 5
-32 -15z"/>
<path d="M2912 2641 c-11 -7 -11 -9 0 -14 9 -3 15 1 15 9 0 8 -1 14 -1 14 -1
0 -7 -4 -14 -9z"/>
<path d="M2068 2633 c6 -2 18 -2 25 0 6 3 1 5 -13 5 -14 0 -19 -2 -12 -5z"/>
<path d="M2237 2633 c-4 -3 -7 -11 -7 -17 0 -6 5 -5 12 2 6 6 9 14 7 17 -3 3
-9 2 -12 -2z"/>
<path d="M2592 2624 c-7 -8 -8 -14 -3 -14 10 0 25 19 20 25 -2 1 -10 -3 -17
-11z"/>
<path d="M2040 2619 c12 -9 10 -10 -9 -5 -17 3 -21 2 -13 -6 5 -5 20 -7 32 -3
18 6 20 9 9 16 -20 13 -37 11 -19 -2z"/>
<path d="M2120 2620 c8 -5 20 -10 25 -10 6 0 3 5 -5 10 -8 5 -19 10 -25 10 -5
0 -3 -5 5 -10z"/>
<path d="M2170 2620 c0 -5 5 -10 10 -10 6 0 10 5 10 10 0 6 -4 10 -10 10 -5 0
-10 -4 -10 -10z"/>
<path d="M2532 2616 c7 -8 15 -12 17 -11 5 6 -10 25 -20 25 -5 0 -4 -6 3 -14z"/>
<path d="M2694 2615 c-4 -8 -9 -13 -13 -11 -4 3 -13 -4 -20 -16 -7 -11 -8 -17
-3 -14 6 3 13 1 15 -4 3 -6 4 -5 3 2 -1 7 9 23 22 35 14 13 20 23 13 23 -6 0
-14 -7 -17 -15z"/>
<path d="M2884 2621 c7 -11 46 -35 46 -28 0 3 -12 12 -26 22 -15 9 -23 12 -20
6z"/>
<path d="M2507 2609 c7 -7 15 -10 18 -7 3 3 -2 9 -12 12 -14 6 -15 5 -6 -5z"/>
<path d="M1996 2597 c3 -10 9 -15 12 -12 3 3 0 11 -7 18 -10 9 -11 8 -5 -6z"/>
<path d="M2096 2601 c-3 -5 1 -14 9 -21 8 -7 15 -9 15 -4 0 4 6 -1 14 -11 14
-20 11 -49 -5 -39 -5 3 -6 11 -3 17 4 7 4 9 -1 5 -4 -4 -19 7 -32 24 -12 18
-23 27 -23 21 0 -7 5 -15 10 -18 6 -4 7 -11 4 -17 -4 -6 -2 -8 4 -4 6 3 13 -3
17 -14 3 -11 11 -20 16 -20 6 0 7 -6 3 -12 -4 -7 1 -6 10 3 19 17 31 63 14 53
-6 -4 -9 -1 -6 7 3 8 11 13 17 12 6 -2 11 2 11 7 0 14 -17 13 -26 -1 -5 -8
-10 -6 -16 5 -10 18 -24 21 -32 7z m24 -11 c0 -5 -2 -10 -4 -10 -3 0 -8 5 -11
10 -3 6 -1 10 4 10 6 0 11 -4 11 -10z"/>
<path d="M2184 2585 c-9 -14 -14 -28 -11 -32 4 -3 11 6 16 20 5 14 16 27 23
30 9 4 10 6 1 6 -7 1 -20 -10 -29 -24z"/>
<path d="M2260 2595 c10 -12 10 -18 0 -30 -9 -10 -9 -15 -1 -15 6 0 11 5 11
11 0 5 4 8 8 5 4 -2 8 4 8 14 0 10 -4 16 -8 14 -4 -3 -8 0 -8 5 0 6 -5 11 -11
11 -8 0 -8 -5 1 -15z"/>
<path d="M2307 2603 c-12 -11 -7 -40 8 -53 13 -11 13 -15 3 -21 -9 -6 -9 -9
-1 -9 19 0 24 17 8 30 -17 14 -21 55 -5 45 6 -3 10 -1 10 4 0 12 -13 14 -23 4z"/>
<path d="M2400 2595 c-7 -8 -9 -15 -4 -15 5 0 1 -5 -8 -11 -17 -10 -14 -39 4
-39 6 0 5 6 -2 15 -10 12 -9 15 5 15 11 0 15 5 12 15 -4 8 -2 17 3 20 6 4 10
0 10 -8 0 -21 27 -40 42 -31 7 5 19 9 26 10 19 3 27 13 18 21 -4 4 -10 3 -14
-3 -8 -12 -22 -12 -42 1 -13 8 -13 7 -1 -8 9 -11 10 -17 2 -17 -6 0 -16 11
-21 25 -11 29 -13 30 -30 10z"/>
<path d="M2615 2600 c3 -5 14 -10 23 -10 15 0 15 2 2 10 -20 13 -33 13 -25 0z"/>
<path d="M2714 2602 c3 -6 0 -13 -6 -16 -7 -3 -2 -3 11 0 13 3 21 2 18 -3 -3
-5 3 -15 15 -22 11 -7 17 -8 14 -3 -3 6 -3 12 1 15 5 2 2 2 -4 1 -7 -2 -13 1
-13 6 0 5 -10 14 -21 21 -13 6 -19 7 -15 1z"/>
<path d="M1959 2591 c12 -8 12 -13 -3 -35 -9 -15 -20 -25 -24 -22 -5 3 -14 0
-22 -6 -13 -8 -13 -9 0 -5 9 3 24 -1 35 -9 10 -8 15 -14 11 -14 -5 0 -4 -6 2
-12 15 -19 15 -30 1 -39 -8 -4 -10 -11 -6 -16 9 -8 28 17 21 28 -2 4 0 10 6
14 17 10 11 25 -15 37 -13 6 -22 15 -19 20 3 4 10 6 15 3 5 -4 17 -1 26 5 15
9 14 10 -7 4 -24 -7 -24 -6 -7 19 14 22 15 26 1 31 -23 9 -31 7 -15 -3z m21
-101 c0 -5 -2 -10 -4 -10 -3 0 -8 5 -11 10 -3 6 -1 10 4 10 6 0 11 -4 11 -10z"/>
<path d="M2230 2591 c0 -5 5 -13 10 -16 6 -3 10 -2 10 4 0 5 -4 13 -10 16 -5
3 -10 2 -10 -4z"/>
<path d="M2571 2593 c-1 -15 47 -48 56 -40 3 4 -6 11 -20 16 -14 5 -27 16 -30
23 -4 9 -6 10 -6 1z"/>
<path d="M2042 2569 c12 -10 25 -15 28 -12 3 3 -1 8 -8 10 -6 3 -10 8 -8 12 3
4 -4 7 -15 7 -19 0 -18 -1 3 -17z"/>
<path d="M2550 2585 c0 -5 5 -17 10 -25 5 -8 10 -10 10 -5 0 6 -5 17 -10 25
-5 8 -10 11 -10 5z"/>
<path d="M2795 2581 c3 -5 1 -12 -5 -16 -5 -3 -10 -11 -10 -18 0 -6 7 -2 15 9
17 23 19 34 4 34 -5 0 -8 -4 -4 -9z"/>
<path d="M2850 2580 c0 -5 5 -10 10 -10 6 0 10 5 10 10 0 6 -4 10 -10 10 -5 0
-10 -4 -10 -10z"/>
<path d="M2904 2582 c3 -5 0 -12 -6 -15 -7 -2 -10 -7 -7 -11 3 -4 12 0 18 8 9
11 9 16 0 22 -7 4 -9 3 -5 -4z"/>
<path d="M1940 2572 c0 -6 -8 -9 -17 -6 -15 5 -16 4 -3 -5 16 -11 40 3 27 16
-4 3 -7 1 -7 -5z"/>
<path d="M2823 2568 c-19 -25 -24 -38 -14 -38 6 0 11 7 11 16 0 8 5 12 10 9 6
-4 7 -12 4 -18 -4 -7 -4 -9 1 -5 4 4 17 -4 27 -18 16 -20 23 -22 34 -13 8 6
14 16 14 22 0 6 -6 3 -13 -8 -10 -12 -16 -14 -21 -7 -4 7 -2 12 3 12 6 0 11 5
11 11 0 8 -5 8 -15 -1 -18 -15 -20 0 -2 20 10 12 9 12 -3 3 -11 -8 -18 -8 -27
2 -6 7 -9 16 -6 19 4 3 4 6 1 6 -3 0 -10 -6 -15 -12z"/>
<path d="M2010 2562 c0 -5 11 -14 25 -20 14 -6 25 -10 25 -8 0 2 -11 11 -25
20 -14 9 -25 13 -25 8z"/>
<path d="M2217 2563 c-4 -3 -7 -13 -7 -22 1 -13 3 -13 11 2 11 19 8 33 -4 20z"/>
<path d="M2530 2561 c0 -5 7 -14 15 -21 8 -7 15 -17 15 -22 0 -6 -7 -5 -15 2
-9 7 -15 8 -15 2 0 -14 28 -23 35 -12 3 5 -2 21 -11 35 -17 26 -24 31 -24 16z"/>
<path d="M2700 2555 c14 -17 30 -20 30 -4 0 5 -4 7 -10 4 -5 -3 -10 -1 -10 4
0 6 -5 11 -11 11 -8 0 -8 -5 1 -15z"/>
<path d="M2512 2540 c0 -14 2 -19 5 -12 2 6 2 18 0 25 -3 6 -5 1 -5 -13z"/>
<path d="M2656 2545 c23 -17 34 -19 34 -4 0 5 -4 8 -9 4 -5 -3 -12 -1 -16 5
-3 5 -11 10 -18 10 -6 0 -2 -7 9 -15z"/>
<path d="M1880 2540 c-8 -5 -10 -10 -5 -10 6 0 17 5 25 10 8 5 11 10 5 10 -5
0 -17 -5 -25 -10z"/>
<path d="M2286 2535 c4 -8 8 -15 10 -15 2 0 4 7 4 15 0 8 -4 15 -10 15 -5 0
-7 -7 -4 -15z"/>
<path d="M2410 2541 c0 -19 42 -23 59 -6 15 16 15 16 -8 4 -19 -11 -25 -11
-28 -1 -5 14 -23 16 -23 3z"/>
<path d="M2580 2541 c0 -6 5 -13 11 -16 6 -5 4 -12 -8 -20 -13 -10 -15 -17 -7
-25 8 -8 14 -7 24 5 7 8 9 15 4 15 -4 0 1 6 11 14 20 14 49 11 39 -5 -3 -5
-11 -6 -17 -3 -7 4 -9 4 -5 -1 4 -4 -7 -19 -24 -32 -18 -12 -27 -23 -21 -23 7
0 15 5 18 10 4 6 11 7 17 4 6 -4 8 -2 4 4 -3 6 3 13 14 17 11 3 20 11 20 16 0
6 6 7 13 3 6 -4 5 1 -4 10 -17 19 -63 31 -53 14 4 -6 1 -9 -7 -6 -8 3 -13 11
-11 17 1 6 -2 11 -8 11 -5 0 -10 -4 -10 -9z m20 -45 c0 -3 -4 -8 -10 -11 -5
-3 -10 -1 -10 4 0 6 5 11 10 11 6 0 10 -2 10 -4z"/>
<path d="M2745 2541 c3 -5 -1 -11 -7 -14 -7 -2 -11 -7 -8 -10 3 -3 13 0 23 8
16 11 16 13 2 19 -9 3 -14 2 -10 -3z"/>
<path d="M2003 2533 c-15 -5 -17 -23 -4 -23 5 0 11 7 15 15 3 8 4 15 3 14 -1
0 -8 -3 -14 -6z"/>
<path d="M2070 2530 c0 -5 5 -10 10 -10 6 0 10 5 10 10 0 6 -4 10 -10 10 -5 0
-10 -4 -10 -10z"/>
<path d="M2162 2520 c-15 -25 -15 -30 0 -30 6 0 8 3 5 7 -4 3 -2 12 5 20 6 7
9 15 7 18 -3 2 -10 -5 -17 -15z"/>
<path d="M2230 2531 c0 -6 5 -13 12 -17 6 -4 8 -3 4 4 -3 5 0 13 6 15 8 3 6 6
-4 6 -10 1 -18 -3 -18 -8z"/>
<path d="M1820 2498 l-35 -31 33 19 c17 10 32 22 32 27 0 4 5 5 12 1 7 -4 8
-3 4 4 -9 15 -5 17 -46 -20z"/>
<path d="M2033 2524 c4 -4 -1 -13 -11 -20 -14 -11 -15 -15 -3 -26 12 -11 13
-10 7 6 -5 14 -2 17 9 12 9 -3 14 -2 10 3 -3 5 0 11 7 13 7 3 4 7 -7 12 -11 4
-16 4 -12 0z"/>
<path d="M2194 2522 c3 -6 1 -13 -4 -15 -6 -3 -5 -4 2 -3 6 1 27 -13 46 -31
18 -18 41 -33 50 -32 14 0 14 2 2 6 -8 3 -23 14 -34 25 -11 10 -24 18 -28 18
-5 0 -7 4 -4 8 2 4 -4 14 -16 21 -11 7 -17 8 -14 3z"/>
<path d="M2259 2509 c-6 -13 -7 -19 -1 -15 6 3 12 1 14 -6 3 -7 7 -5 11 6 5
11 3 15 -5 10 -8 -5 -9 -2 -5 9 9 24 0 21 -14 -4z"/>
<path d="M2350 2520 c0 -5 5 -10 10 -10 6 0 10 5 10 10 0 6 -4 10 -10 10 -5 0
-10 -4 -10 -10z"/>
<path d="M2695 2521 c-3 -6 1 -16 9 -23 12 -11 12 -15 -1 -30 -13 -14 -13 -20
-3 -33 15 -18 33 -20 27 -2 -2 6 -10 11 -16 10 -13 -4 -15 13 -2 22 5 3 12 1
16 -5 3 -5 12 -10 18 -10 7 0 4 5 -5 11 -9 5 -15 16 -12 23 3 7 -3 16 -13 20
-15 6 -15 8 -3 16 9 6 10 10 3 10 -6 0 -14 -4 -18 -9z"/>
<path d="M2777 2523 c-4 -3 -7 -13 -7 -22 1 -13 3 -13 11 2 11 19 8 33 -4 20z"/>
<path d="M1868 2498 c-22 -22 -24 -35 -3 -18 18 15 20 -1 3 -18 -7 -7 -8 -12
-2 -12 5 0 17 14 26 31 10 16 14 27 9 24 -5 -3 -11 -2 -13 3 -1 4 -11 0 -20
-10z"/>
<path d="M2384 2505 c-4 -8 -11 -12 -18 -8 -6 4 -5 -1 3 -10 7 -9 19 -17 25
-16 7 0 7 2 -1 5 -7 3 -9 12 -6 20 3 7 9 11 14 8 5 -3 9 0 9 5 0 16 -20 13
-26 -4z"/>
<path d="M2470 2511 c0 -6 7 -7 17 -4 10 4 14 2 9 -5 -3 -6 3 -16 15 -22 12
-7 19 -8 15 -2 -3 6 0 13 6 16 7 3 3 3 -10 0 -15 -4 -22 -1 -20 7 2 7 -5 15
-14 17 -10 2 -18 -1 -18 -7z"/>
<path d="M2817 2506 c-4 -9 -11 -14 -17 -11 -5 3 -10 1 -10 -4 0 -14 17 -14
25 0 5 6 12 4 20 -8 12 -15 16 -16 27 -4 11 12 10 13 -6 7 -14 -5 -17 -2 -12
9 3 9 2 14 -3 10 -5 -3 -11 0 -13 7 -3 7 -7 5 -11 -6z"/>
<path d="M2090 2500 c0 -5 5 -10 10 -10 6 0 10 5 10 10 0 6 -4 10 -10 10 -5 0
-10 -4 -10 -10z"/>
<path d="M2308 2503 c6 -2 18 -2 25 0 6 3 1 5 -13 5 -14 0 -19 -2 -12 -5z"/>
<path d="M2426 2499 c2 -4 -2 -9 -8 -12 -7 -2 -11 -7 -8 -10 3 -3 16 2 28 12
21 16 22 17 3 17 -11 0 -18 -3 -15 -7z"/>
<path d="M1923 2483 c9 -2 15 -8 12 -13 -3 -5 -13 -7 -23 -4 -14 5 -14 3 2 -6
14 -10 20 -10 27 1 10 17 2 29 -19 28 -15 -1 -15 -2 1 -6z"/>
<path d="M2047 2472 c-10 -10 -17 -23 -17 -28 0 -5 5 -1 11 9 7 12 15 15 22 9
20 -15 55 -11 62 6 5 14 7 14 15 2 6 -9 10 -10 10 -3 0 20 -17 24 -33 8 -13
-13 -16 -13 -27 0 -16 19 -23 19 -43 -3z m38 -2 c3 -5 2 -10 -4 -10 -5 0 -13
5 -16 10 -3 6 -2 10 4 10 5 0 13 -4 16 -10z"/>
<path d="M2172 2478 c-15 -15 -15 -28 -1 -28 5 0 8 4 5 9 -4 5 0 11 6 14 7 2
10 7 7 10 -3 4 -11 1 -17 -5z"/>
<path d="M2286 2474 c-5 -14 -4 -15 9 -4 17 14 19 20 6 20 -5 0 -12 -7 -15
-16z"/>
<path d="M2323 2478 c-5 -7 -10 -23 -11 -35 -1 -22 -1 -22 20 -3 12 11 25 17
30 14 4 -3 8 0 8 5 0 14 -13 14 -28 -1 -6 -6 -15 -9 -19 -5 -3 4 2 14 13 22
10 8 14 15 8 15 -6 0 -16 -6 -21 -12z"/>
<path d="M2447 2476 c-17 -13 -25 -32 -8 -22 5 4 11 3 14 -1 2 -5 2 -3 1 4 -2
6 2 14 9 16 7 2 10 7 7 10 -3 3 -13 0 -23 -7z"/>
<path d="M2539 2464 c-5 -15 -7 -29 -5 -32 5 -4 10 6 22 46 7 23 -7 12 -17
-14z"/>
<path d="M2670 2480 c0 -5 5 -10 10 -10 6 0 10 5 10 10 0 6 -4 10 -10 10 -5 0
-10 -4 -10 -10z"/>
<path d="M1830 2472 c0 -8 -5 -10 -12 -6 -8 5 -8 1 2 -12 8 -10 15 -20 16 -22
1 -2 4 3 7 11 3 8 1 20 -4 28 -7 11 -9 11 -9 1z"/>
<path d="M2206 2461 c3 -13 2 -21 -3 -18 -5 3 -15 -3 -22 -15 -7 -11 -8 -17
-3 -14 6 3 12 3 15 -1 2 -5 2 -2 1 5 -2 6 1 12 6 12 5 0 14 10 21 21 6 13 7
19 1 15 -6 -3 -13 0 -16 6 -3 7 -3 2 0 -11z"/>
<path d="M2484 2468 c3 -10 0 -18 -6 -18 -6 0 -8 -3 -5 -6 4 -4 13 -2 21 5 10
8 16 9 19 1 4 -7 5 -7 4 1 -2 6 -6 10 -11 9 -5 -1 -13 4 -18 12 -7 10 -8 9 -4
-4z"/>
<path d="M2777 2459 c37 -18 41 -23 32 -40 -5 -11 -14 -17 -20 -14 -5 4 -12
-1 -15 -9 -3 -9 -10 -14 -14 -11 -4 3 -13 -2 -20 -10 -10 -12 -8 -16 14 -25
14 -5 26 -15 26 -21 0 -8 -5 -7 -17 2 -15 11 -16 11 -6 0 6 -7 9 -20 6 -27 -3
-8 1 -14 8 -14 7 0 9 3 6 7 -4 3 -2 12 4 20 13 15 -4 43 -28 43 -8 0 -12 4 -8
10 3 5 12 7 20 3 10 -3 15 1 15 13 1 17 3 16 20 -5 15 -18 20 -19 20 -7 0 9
-5 16 -10 16 -6 0 -5 8 2 19 7 11 16 17 20 15 4 -3 8 -3 8 0 0 10 -74 56 -90
56 -8 0 4 -9 27 -21z"/>
<path d="M1760 2455 c-9 -10 -9 -15 -1 -15 6 0 11 5 11 11 0 5 5 7 12 3 7 -4
8 -3 4 4 -9 15 -11 15 -26 -3z"/>
<path d="M1990 2466 c0 -2 7 -7 16 -10 8 -3 12 -2 9 4 -6 10 -25 14 -25 6z"/>
<path d="M2640 2460 c0 -5 5 -10 10 -10 6 0 10 5 10 10 0 6 -4 10 -10 10 -5 0
-10 -4 -10 -10z"/>
<path d="M2820 2460 c8 -5 20 -10 25 -10 6 0 3 5 -5 10 -8 5 -19 10 -25 10 -5
0 -3 -5 5 -10z"/>
<path d="M2874 2461 c3 -5 -1 -12 -10 -15 -9 -4 -14 -9 -11 -12 3 -3 15 1 27
9 18 12 19 15 5 21 -9 3 -14 2 -11 -3z"/>
<path d="M2380 2445 c-9 -10 -9 -15 -1 -15 6 0 11 4 11 9 0 5 8 12 18 14 14 4
14 5 1 6 -9 0 -22 -6 -29 -14z"/>
<path d="M1790 2440 c-11 -7 -11 -10 -2 -10 7 0 10 -4 7 -10 -3 -6 1 -7 10 -4
11 5 14 2 9 -12 -6 -16 -5 -17 7 -6 12 11 11 15 -3 26 -10 7 -15 16 -11 19 9
10 0 8 -17 -3z"/>
<path d="M1895 2440 c3 -5 12 -10 20 -10 17 0 27 -27 12 -34 -8 -3 -8 -5 -1
-5 6 -1 18 7 25 17 7 9 10 14 5 10 -4 -3 -16 2 -27 13 -20 20 -45 26 -34 9z"/>
<path d="M1995 2440 c3 -6 1 -10 -6 -10 -7 0 -10 -3 -6 -6 3 -3 13 -2 22 4 16
8 16 9 1 15 -10 4 -15 3 -11 -3z"/>
<path d="M2050 2441 c0 -5 7 -12 16 -15 14 -5 15 -4 4 9 -14 17 -20 19 -20 6z"/>
<path d="M2141 2433 c7 -10 14 -19 15 -21 1 -2 4 4 8 13 3 9 2 13 -4 10 -6 -3
-10 -1 -10 4 0 6 -5 11 -11 11 -8 0 -7 -6 2 -17z"/>
<path d="M2234 2442 c3 -5 0 -13 -6 -15 -8 -3 -6 -6 5 -6 19 -1 23 14 5 25 -6
4 -8 3 -4 -4z"/>
<path d="M2557 2436 c-10 -26 -8 -33 4 -16 9 12 10 10 5 -9 -3 -18 -2 -21 6
-13 8 8 8 18 1 34 -8 19 -10 20 -16 4z"/>
<path d="M2610 2439 c0 -5 -4 -8 -8 -5 -4 2 -8 -4 -8 -15 0 -24 0 -24 20 6 9
14 12 25 6 25 -5 0 -10 -5 -10 -11z"/>
<path d="M2748 2425 c-6 -13 -15 -22 -21 -18 -6 3 -7 1 -3 -5 3 -5 0 -13 -6
-15 -9 -4 -10 -6 -1 -6 6 -1 19 9 27 21 9 12 16 19 16 14 0 -5 6 -3 13 3 8 6
18 7 23 3 4 -4 2 1 -5 11 -18 23 -29 21 -43 -8z m32 11 c0 -3 -4 -8 -10 -11
-5 -3 -10 -1 -10 4 0 6 5 11 10 11 6 0 10 -2 10 -4z"/>
<path d="M1851 2433 c-1 -15 47 -48 56 -40 3 4 -6 11 -20 16 -14 5 -27 16 -30
23 -4 9 -6 10 -6 1z"/>
<path d="M2090 2429 c0 -7 -11 -22 -26 -35 -14 -13 -21 -24 -16 -24 14 0 52
40 52 55 0 8 -2 15 -5 15 -3 0 -5 -5 -5 -11z"/>
<path d="M2350 2429 c0 -5 -5 -7 -11 -4 -6 4 -5 -2 2 -13 7 -12 17 -18 22 -15
5 3 6 -5 3 -18 -3 -13 -3 -18 0 -11 3 6 10 9 16 6 6 -4 5 2 -1 15 -7 11 -16
21 -21 21 -5 0 -7 7 -4 15 4 8 3 15 0 15 -3 0 -6 -5 -6 -11z"/>
<path d="M2416 2425 c-4 -11 -4 -16 0 -12 4 4 13 -1 20 -11 11 -14 15 -15 26
-3 11 12 10 13 -6 7 -14 -5 -17 -2 -12 9 3 9 2 14 -3 10 -5 -3 -11 0 -13 7 -3
7 -7 4 -12 -7z"/>
<path d="M2626 2415 c-9 -14 -13 -25 -8 -25 5 0 14 11 20 25 6 14 10 25 8 25
-2 0 -11 -11 -20 -25z"/>
<path d="M2656 2425 c-4 -11 -4 -16 0 -12 4 4 13 -1 20 -11 11 -14 15 -15 26
-3 11 12 10 13 -6 7 -14 -5 -17 -2 -12 9 3 9 2 14 -3 10 -5 -3 -11 0 -13 7 -3
7 -7 4 -12 -7z"/>
<path d="M1723 2415 c-19 -21 -16 -27 7 -13 11 7 20 16 20 20 0 12 -14 9 -27
-7z"/>
<path d="M2036 2418 c5 -8 2 -9 -9 -5 -24 9 -21 0 4 -14 13 -6 19 -7 15 -1 -3
6 -1 12 6 14 7 3 5 7 -6 11 -11 5 -15 3 -10 -5z"/>
<path d="M2256 2414 c-4 -9 -4 -19 -1 -22 2 -3 7 3 11 12 4 9 4 19 1 22 -2 3
-7 -3 -11 -12z"/>
<path d="M2490 2420 c0 -5 5 -10 10 -10 6 0 10 5 10 10 0 6 -4 10 -10 10 -5 0
-10 -4 -10 -10z"/>
<path d="M2870 2420 c-9 -6 -10 -10 -3 -10 6 0 15 5 18 10 8 12 4 12 -15 0z"/>
<path d="M2524 2412 c4 -7 2 -12 -3 -12 -6 0 -11 -8 -11 -17 -1 -17 -2 -17
-13 -2 -11 15 -15 15 -32 2 -20 -15 -20 -15 2 -9 12 4 24 2 28 -4 3 -5 -1 -10
-9 -10 -19 0 -21 -16 -3 -26 6 -4 9 -4 6 0 -3 3 5 19 20 35 23 25 27 27 39 12
11 -14 12 -13 2 6 -5 12 -15 25 -22 29 -7 4 -8 3 -4 -4z"/>
<path d="M1755 2399 c-11 -16 -1 -19 13 -3 7 8 8 14 3 14 -5 0 -13 -5 -16 -11z"/>
<path d="M1832 2390 c-7 -12 -8 -20 -2 -20 6 0 5 -7 -2 -19 -7 -11 -17 -17
-23 -15 -5 3 4 -6 20 -20 17 -14 35 -26 40 -26 6 0 -2 8 -16 18 -14 9 -24 23
-22 30 3 6 9 10 13 7 5 -3 15 4 23 15 7 11 17 17 22 12 5 -4 5 -1 1 6 -10 17
-26 15 -26 -4 0 -8 -5 -12 -10 -9 -6 4 -8 15 -5 26 8 25 3 24 -13 -1z"/>
<path d="M1984 2395 c11 -8 22 -12 25 -9 6 6 -19 24 -34 24 -5 -1 -1 -7 9 -15z"/>
<path d="M2120 2400 c20 -13 33 -13 25 0 -3 6 -14 10 -23 10 -15 0 -15 -2 -2
-10z"/>
<path d="M2222 2393 c16 -15 16 -18 1 -28 -14 -10 -14 -13 1 -28 10 -9 12 -18
6 -22 -13 -8 -13 -25 0 -25 6 0 9 5 8 11 -2 6 3 14 11 17 9 3 11 0 6 -8 -5 -8
-4 -11 3 -6 6 3 13 2 17 -4 3 -5 11 -10 18 -10 6 0 -3 11 -21 23 -17 13 -28
28 -24 32 4 5 2 5 -5 1 -6 -3 -14 -2 -18 4 -3 5 1 10 9 10 9 0 16 3 16 8 -1
11 -26 42 -36 42 -4 0 -1 -8 8 -17z"/>
<path d="M2280 2389 c-21 -16 -22 -18 -5 -13 20 6 20 5 1 -10 -11 -9 -14 -16
-7 -16 7 0 9 -4 6 -10 -3 -6 1 -7 10 -4 11 5 14 2 9 -12 -6 -16 -5 -17 7 -6
12 11 11 15 -3 26 -13 10 -15 15 -6 24 7 7 8 12 3 12 -6 0 -3 4 5 10 8 5 12
11 10 14 -3 2 -16 -4 -30 -15z"/>
<path d="M2830 2400 c0 -5 5 -10 10 -10 6 0 10 5 10 10 0 6 -4 10 -10 10 -5 0
-10 -4 -10 -10z"/>
<path d="M2176 2385 c23 -17 34 -19 34 -4 0 5 -4 8 -9 4 -5 -3 -12 -1 -16 5
-3 5 -11 10 -18 10 -6 0 -2 -7 9 -15z"/>
<path d="M2398 2393 c6 -2 10 -9 7 -14 -4 -5 1 -6 10 -2 13 5 14 7 3 14 -7 5
-17 8 -23 8 -5 0 -4 -3 3 -6z"/>
<path d="M2644 2391 c4 -6 2 -11 -3 -11 -6 0 -11 -5 -11 -11 0 -5 5 -7 10 -4
6 3 10 1 10 -4 0 -6 5 -11 11 -11 8 0 7 6 -2 16 -12 15 -11 16 11 9 29 -9 25
-3 -9 15 -15 8 -21 8 -17 1z"/>
<path d="M2860 2385 c-7 -9 -8 -15 -2 -15 5 0 12 7 16 15 3 8 4 15 2 15 -2 0
-9 -7 -16 -15z"/>
<path d="M6 2306 c6 -93 33 -234 64 -327 25 -76 129 -289 141 -289 5 0 9 -5 9
-11 0 -16 84 -122 149 -188 166 -169 374 -289 597 -345 91 -23 138 -30 264
-41 25 -2 48 -4 53 -4 4 -1 7 -195 7 -431 l0 -431 26 -24 c15 -14 34 -25 43
-26 18 -1 185 -1 217 0 12 1 33 12 48 26 l27 25 -4 523 c-2 287 -7 536 -11
552 -7 28 -23 99 -31 135 -8 39 -60 171 -88 225 -121 234 -321 439 -547 562
-112 61 -284 117 -420 138 -25 4 -158 8 -297 10 l-252 3 5 -82z"/>
<path d="M1730 2378 c0 -9 5 -20 10 -23 13 -8 13 5 0 25 -8 13 -10 13 -10 -2z"/>
<path d="M1766 2373 c-6 -14 -5 -15 5 -6 7 7 10 15 7 18 -3 3 -9 -2 -12 -12z"/>
<path d="M1942 2370 c-7 -11 -8 -20 -3 -20 5 0 12 7 15 15 5 13 10 14 28 5 22
-11 22 -10 4 4 -25 20 -29 20 -44 -4z"/>
<path d="M2100 2381 c0 -6 5 -13 11 -16 6 -5 4 -12 -8 -20 -15 -12 -16 -16 -4
-27 12 -11 13 -10 7 6 -5 14 -2 17 9 12 9 -3 13 -2 10 4 -3 6 0 10 7 10 8 0 6
5 -5 11 -9 6 -15 14 -12 20 4 5 1 9 -4 9 -6 0 -11 -4 -11 -9z"/>
<path d="M2316 2374 c-3 -9 -1 -23 4 -32 9 -14 10 -12 4 8 -6 22 -5 23 10 11
10 -9 16 -10 16 -2 0 6 -5 11 -11 11 -5 0 -7 5 -4 10 3 6 2 10 -3 10 -6 0 -13
-7 -16 -16z"/>
<path d="M2570 2370 c-6 -11 -9 -20 -8 -20 2 0 11 9 21 20 9 11 13 20 7 20 -5
0 -14 -9 -20 -20z"/>
<path d="M1896 2358 c-9 -12 -16 -19 -16 -14 0 5 -7 3 -15 -4 -12 -10 -13 -16
-5 -24 8 -8 15 -6 24 6 12 16 14 16 31 0 10 -9 15 -12 11 -5 -3 6 0 14 6 17 7
3 4 4 -6 3 -10 -1 -21 4 -24 12 -3 9 0 11 8 6 8 -5 11 -4 6 3 -3 5 0 13 6 15
9 4 10 6 1 6 -6 1 -19 -9 -27 -21z m-16 -28 c0 -5 -5 -10 -11 -10 -5 0 -7 5
-4 10 3 6 8 10 11 10 2 0 4 -4 4 -10z"/>
<path d="M2150 2370 c0 -5 7 -10 16 -10 8 0 12 -5 9 -10 -4 -6 -12 -7 -18 -4
-7 4 -9 4 -6 0 3 -3 -5 -19 -20 -35 l-26 -28 -17 23 c-19 24 -25 59 -8 49 6
-3 10 -1 10 4 0 16 -20 13 -26 -4 -4 -8 -3 -23 2 -32 4 -10 6 -22 5 -28 -2 -5
1 -7 4 -3 4 4 16 -3 27 -15 11 -12 17 -16 13 -9 -3 6 -1 12 4 12 6 0 11 8 11
17 0 15 2 14 19 -3 10 -10 16 -23 13 -29 -3 -5 3 -3 13 7 19 18 11 43 -11 34
-7 -3 -16 -1 -19 4 -3 5 4 11 15 15 11 3 20 11 20 16 0 6 5 7 12 3 7 -4 8 -3
4 4 -11 18 -46 35 -46 22z m30 -80 c0 -5 -2 -10 -4 -10 -3 0 -8 5 -11 10 -3 6
-1 10 4 10 6 0 11 -4 11 -10z"/>
<path d="M1679 2356 c-15 -10 -15 -13 -1 -26 14 -13 15 -12 10 2 -10 25 4 30
16 6 6 -12 18 -23 26 -25 10 -3 9 -1 -2 7 -10 6 -18 17 -18 25 0 20 -13 25
-31 11z"/>
<path d="M1790 2360 c0 -5 5 -10 10 -10 6 0 10 5 10 10 0 6 -4 10 -10 10 -5 0
-10 -4 -10 -10z"/>
<path d="M2020 2355 c10 -12 10 -18 0 -30 -9 -10 -9 -15 -1 -15 6 0 11 5 11
11 0 5 4 8 8 5 4 -2 8 4 8 14 0 10 -4 16 -8 14 -4 -3 -8 0 -8 5 0 6 -5 11 -11
11 -8 0 -8 -5 1 -15z"/>
<path d="M2428 2363 c7 -3 18 -16 23 -30 5 -14 12 -23 16 -20 8 9 -25 57 -40
56 -9 0 -8 -2 1 -6z"/>
<path d="M2520 2355 c-7 -8 -10 -15 -7 -15 2 0 -7 -13 -22 -29 -23 -25 -27
-27 -38 -12 -7 9 -13 12 -13 7 0 -6 -7 -1 -15 10 -8 10 -15 14 -15 8 0 -6 7
-17 15 -24 8 -7 15 -9 15 -5 0 4 9 -3 21 -16 11 -13 18 -18 14 -11 -3 6 -1 12
4 12 6 0 11 8 11 17 0 15 2 14 19 -3 10 -10 16 -23 13 -29 -3 -5 4 -2 14 8 17
16 17 18 2 34 -16 15 -16 17 0 29 12 9 14 16 6 24 -8 8 -14 7 -24 -5z m20 -5
c0 -5 -5 -10 -11 -10 -5 0 -7 5 -4 10 3 6 8 10 11 10 2 0 4 -4 4 -10z m-10
-45 c20 -24 6 -28 -15 -5 -10 11 -13 20 -8 20 6 0 16 -7 23 -15z"/>
<path d="M2594 2362 c3 -6 0 -13 -6 -16 -7 -3 -2 -3 11 0 15 4 21 2 17 -4 -4
-6 3 -16 15 -22 12 -7 19 -8 15 -2 -3 6 0 13 6 16 7 3 2 3 -11 0 -15 -4 -21
-2 -17 4 4 6 -3 16 -15 22 -12 7 -19 8 -15 2z"/>
<path d="M2790 2365 c0 -5 5 -17 10 -25 5 -8 10 -10 10 -5 0 6 -5 17 -10 25
-5 8 -10 11 -10 5z"/>
<path d="M2834 2362 c3 -6 3 -12 -1 -15 -5 -2 -3 -2 4 -1 6 2 13 -2 16 -9 2
-7 6 -7 10 -1 3 5 -3 16 -15 23 -11 7 -17 8 -14 3z"/>
<path d="M1957 2346 c-5 -11 -3 -15 5 -10 8 5 9 2 5 -9 -9 -24 0 -21 14 4 6
13 7 19 1 15 -6 -3 -12 -1 -14 6 -3 7 -7 5 -11 -6z"/>
<path d="M2378 2347 c-7 -8 -19 -12 -26 -11 -7 1 -8 0 -2 -3 5 -2 7 -9 4 -15
-3 -5 3 -4 15 4 12 7 21 16 21 21 0 4 5 5 10 2 6 -3 10 -1 10 4 0 15 -16 14
-32 -2z"/>
<path d="M2684 2348 c1 -7 -3 -19 -11 -26 -7 -7 -12 -21 -12 -30 1 -15 2 -15
6 1 2 9 8 17 11 17 4 0 13 9 20 21 8 12 9 18 4 15 -6 -3 -13 -1 -15 4 -3 6 -4
5 -3 -2z"/>
<path d="M1634 2339 c-11 -18 14 -35 29 -20 10 12 9 13 -7 7 -14 -5 -17 -2
-12 9 6 17 0 20 -10 4z"/>
<path d="M1755 2340 c-3 -5 -4 -14 0 -19 3 -6 -3 -15 -14 -20 -25 -14 -44 -14
-36 -1 3 6 1 10 -5 10 -7 0 -10 -6 -7 -12 4 -12 14 -12 65 -6 6 1 10 4 7 6 -3
3 3 11 13 19 16 14 16 14 0 9 -20 -6 -25 10 -5 17 9 4 9 6 0 6 -6 1 -15 -3
-18 -9z"/>
<path d="M1996 2333 c-6 -14 -5 -15 5 -6 7 7 10 15 7 18 -3 3 -9 -2 -12 -12z"/>
<path d="M2555 2330 c-3 -5 1 -21 10 -34 19 -29 45 -24 44 8 0 20 -1 20 -10
-3 -9 -23 -10 -24 -24 -5 -19 25 -19 40 0 24 9 -7 15 -8 15 -2 0 14 -28 23
-35 12z"/>
<path d="M2190 2320 c0 -5 5 -10 10 -10 6 0 10 5 10 10 0 6 -4 10 -10 10 -5 0
-10 -4 -10 -10z"/>
<path d="M2720 2320 c20 -13 33 -13 25 0 -3 6 -14 10 -23 10 -15 0 -15 -2 -2
-10z"/>
<path d="M2805 2314 c-11 -8 -18 -16 -16 -17 2 -1 1 -12 -3 -25 -5 -14 -3 -29
6 -39 11 -14 10 -15 -12 -8 -14 4 -22 4 -18 0 4 -4 19 -9 34 -11 14 -1 23 0
20 3 -3 4 0 13 7 22 11 14 10 14 -5 2 -15 -11 -19 -11 -24 2 -6 16 12 57 30
69 6 4 8 9 6 12 -3 2 -14 -2 -25 -10z"/>
<path d="M1941 2310 c-1 -21 16 -46 26 -37 4 5 3 11 -3 15 -6 4 -14 14 -17 22
-5 13 -5 13 -6 0z"/>
<path d="M2330 2311 c0 -10 19 -25 25 -20 1 2 -3 10 -11 17 -8 7 -14 8 -14 3z"/>
<path d="M2390 2313 c0 -7 5 -15 10 -18 6 -4 2 -18 -10 -36 -12 -16 -17 -29
-11 -29 6 0 11 5 11 11 0 5 4 8 9 4 5 -3 13 0 16 5 5 7 12 5 20 -7 10 -13 17
-15 25 -7 8 8 7 14 -5 24 -8 7 -15 9 -15 4 0 -4 -11 7 -25 26 -14 19 -25 29
-25 23z m22 -55 c-7 -7 -12 -8 -12 -2 0 6 3 14 7 17 3 4 9 5 12 2 2 -3 -1 -11
-7 -17z m43 -8 c3 -5 1 -10 -4 -10 -6 0 -11 5 -11 10 0 6 2 10 4 10 3 0 8 -4
11 -10z"/>
<path d="M2832 2304 c-7 -8 -8 -14 -3 -14 10 0 25 19 20 25 -2 1 -10 -3 -17
-11z"/>
<path d="M1600 2299 c-11 -8 -9 -9 10 -3 22 6 23 5 11 -10 -7 -9 -9 -16 -3
-16 12 0 23 26 15 34 -9 8 -16 7 -33 -5z"/>
<path d="M1664 2302 c-6 -4 -4 -13 8 -24 10 -10 18 -14 18 -9 0 6 -5 13 -10
16 -6 4 -8 11 -5 16 7 11 4 11 -11 1z"/>
<path d="M1800 2300 c8 -5 20 -10 25 -10 6 0 3 5 -5 10 -8 5 -19 10 -25 10 -5
0 -3 -5 5 -10z"/>
<path d="M1902 2299 c10 -5 15 -16 12 -24 -4 -10 0 -15 12 -15 16 0 17 2 4 10
-8 5 -11 10 -6 10 5 0 3 7 -4 15 -7 8 -18 15 -24 15 -6 0 -3 -5 6 -11z"/>
<path d="M1980 2300 c0 -5 5 -10 10 -10 6 0 10 5 10 10 0 6 -4 10 -10 10 -5 0
-10 -4 -10 -10z"/>
<path d="M2043 2295 c4 -8 2 -17 -4 -20 -5 -4 -7 -10 -4 -15 6 -10 -24 -24
-45 -21 -13 2 -13 1 0 -8 8 -5 18 -7 24 -4 5 4 7 -1 3 -11 -5 -12 0 -19 18
-26 14 -5 25 -15 25 -21 0 -8 -6 -7 -17 2 -16 12 -16 12 -6 -1 16 -21 17 -32
2 -41 -8 -5 -17 -3 -21 4 -5 8 -8 9 -8 1 0 -6 8 -18 17 -25 9 -8 14 -9 10 -3
-4 7 0 15 9 18 9 4 14 9 11 13 -4 3 -2 12 4 20 13 15 -4 43 -26 43 -21 0 -12
34 13 48 24 14 28 27 12 37 -6 4 -8 11 -5 16 4 5 1 9 -5 9 -7 0 -10 -7 -7 -15z
m17 -25 c0 -5 -5 -10 -11 -10 -5 0 -7 5 -4 10 3 6 8 10 11 10 2 0 4 -4 4 -10z"/>
<path d="M2620 2301 c0 -10 19 -25 25 -20 1 2 -3 10 -11 17 -8 7 -14 8 -14 3z"/>
<path d="M2700 2300 c0 -5 5 -10 10 -10 6 0 10 5 10 10 0 6 -4 10 -10 10 -5 0
-10 -4 -10 -10z"/>
<path d="M2013 2293 c4 -6 -2 -13 -13 -16 -11 -3 -20 -11 -19 -19 0 -10 2 -10
6 0 2 6 11 12 18 12 19 0 28 17 14 26 -7 4 -9 3 -6 -3z"/>
<path d="M1775 2280 c-4 -6 -11 -8 -16 -5 -5 4 -9 1 -9 -5 0 -7 6 -10 14 -7 7
3 19 0 25 -6 6 -6 11 -7 11 -2 0 5 6 0 14 -10 8 -11 12 -25 9 -31 -6 -16 -33
-6 -33 11 0 19 -17 28 -26 14 -4 -8 -3 -9 4 -5 7 4 12 1 12 -9 0 -8 7 -18 15
-21 8 -4 12 -11 9 -18 -4 -6 1 -4 10 5 17 15 32 64 17 55 -4 -3 -13 6 -19 19
-12 26 -27 32 -37 15z m25 -10 c0 -5 -2 -10 -4 -10 -3 0 -8 5 -11 10 -3 6 -1
10 4 10 6 0 11 -4 11 -10z"/>
<path d="M1864 2265 c-9 -14 -14 -28 -11 -32 4 -3 11 6 16 20 5 14 16 27 23
30 9 4 10 6 1 6 -7 1 -20 -10 -29 -24z"/>
<path d="M2255 2280 c3 -5 14 -10 23 -10 15 0 15 2 2 10 -20 13 -33 13 -25 0z"/>
<path d="M2305 2269 c-4 -11 -4 -23 -1 -26 3 -4 6 1 6 10 0 10 5 17 10 17 6 0
10 5 10 10 0 18 -19 10 -25 -11z"/>
<path d="M2352 2274 c-12 -8 -22 -21 -22 -27 0 -7 5 -4 11 6 5 9 16 17 24 17
8 0 17 5 20 10 9 15 -8 12 -33 -6z"/>
<path d="M2746 2265 c20 -30 20 -30 20 -6 0 11 -4 17 -8 15 -4 -3 -8 0 -8 5 0
6 -5 11 -10 11 -6 0 -3 -11 6 -25z"/>
<path d="M1575 2270 c-7 -12 19 -24 37 -17 7 3 3 6 -10 6 -13 1 -20 5 -17 11
3 6 4 10 1 10 -3 0 -8 -5 -11 -10z"/>
<path d="M1637 2266 c-5 -11 -3 -15 5 -10 8 5 9 2 5 -9 -9 -24 0 -21 14 4 6
13 7 19 1 15 -6 -3 -12 -1 -14 6 -3 7 -7 5 -11 -6z"/>
<path d="M1830 2270 c0 -5 5 -10 10 -10 6 0 10 5 10 10 0 6 -4 10 -10 10 -5 0
-10 -4 -10 -10z"/>
<path d="M2210 2271 c0 -7 -4 -10 -9 -7 -5 3 -14 -1 -20 -8 -9 -11 -9 -16 0
-22 7 -4 17 0 24 9 9 12 14 14 23 5 7 -7 12 -8 12 -2 0 5 4 2 10 -6 5 -8 11
-12 14 -10 2 3 -4 16 -15 30 -16 21 -18 22 -13 5 6 -20 5 -20 -10 -1 -9 11
-16 14 -16 7z m-10 -21 c0 -5 -5 -10 -11 -10 -5 0 -7 5 -4 10 3 6 8 10 11 10
2 0 4 -4 4 -10z"/>
<path d="M2690 2269 c0 -5 -4 -7 -10 -4 -6 3 -7 -1 -4 -10 5 -11 2 -14 -12 -9
-16 6 -17 5 -6 -7 11 -12 15 -11 26 3 7 10 16 15 20 11 4 -4 4 0 0 10 -7 19
-14 22 -14 6z"/>
<path d="M2722 2255 c6 -14 15 -25 20 -25 5 0 1 11 -8 25 -9 14 -18 25 -20 25
-2 0 2 -11 8 -25z"/>
<path d="M2806 2263 c-6 -14 -5 -15 5 -6 7 7 10 15 7 18 -3 3 -9 -2 -12 -12z"/>
<path d="M1706 2258 c3 -4 0 -8 -5 -8 -6 0 -11 -5 -11 -11 0 -8 5 -8 15 1 12
10 18 10 30 0 10 -9 15 -9 15 -1 0 6 -5 11 -11 11 -5 0 -8 4 -5 8 2 4 -4 8
-14 8 -10 0 -16 -4 -14 -8z"/>
<path d="M2076 2255 c-9 -26 -7 -32 5 -12 6 10 9 21 6 23 -2 3 -7 -2 -11 -11z"/>
<path d="M2130 2260 c0 -5 5 -10 10 -10 6 0 10 5 10 10 0 6 -4 10 -10 10 -5 0
-10 -4 -10 -10z"/>
<path d="M2490 2260 c0 -5 5 -10 10 -10 6 0 10 5 10 10 0 6 -4 10 -10 10 -5 0
-10 -4 -10 -10z"/>
<path d="M2550 2260 c0 -5 5 -10 10 -10 6 0 10 5 10 10 0 6 -4 10 -10 10 -5 0
-10 -4 -10 -10z"/>
<path d="M2610 2260 c0 -5 5 -10 10 -10 6 0 10 5 10 10 0 6 -4 10 -10 10 -5 0
-10 -4 -10 -10z"/>
<path d="M2575 2238 c-15 -21 -17 -21 -26 -6 -11 20 -39 13 -39 -11 -1 -14 -2
-14 -11 2 -9 16 -12 16 -32 2 -24 -17 -51 -20 -42 -5 3 6 1 10 -4 10 -16 0
-13 -20 4 -26 8 -4 26 1 39 10 21 13 25 13 30 1 3 -9 -1 -15 -9 -15 -18 0 -20
-16 -2 -26 6 -4 9 -4 6 0 -3 3 5 19 20 35 23 25 27 27 38 12 12 -15 14 -15 26
0 11 15 15 13 38 -12 15 -16 23 -32 20 -35 -3 -4 0 -4 7 0 17 10 15 26 -4 26
-8 0 -12 5 -9 10 4 6 16 8 28 4 22 -6 22 -6 2 9 -17 13 -21 13 -32 -2 -11 -15
-12 -15 -13 2 0 9 -5 17 -11 17 -5 0 -7 5 -4 10 12 20 -4 9 -20 -12z"/>
<path d="M1546 2231 c-15 -16 -15 -19 -1 -31 9 -7 14 -19 11 -27 -3 -8 -1 -11
4 -8 6 4 10 12 9 18 -3 27 2 38 14 31 7 -5 7 -1 -3 12 -8 10 -15 20 -16 22 0
1 -8 -6 -18 -17z m18 -16 c-4 -8 -10 -12 -15 -9 -11 6 -2 24 11 24 5 0 7 -7 4
-15z"/>
<path d="M1897 2243 c-4 -3 -7 -13 -7 -22 1 -13 3 -13 11 2 11 19 8 33 -4 20z"/>
<path d="M1925 2240 c-3 -5 -2 -10 4 -10 5 0 13 5 16 10 3 6 2 10 -4 10 -5 0
-13 -4 -16 -10z"/>
<path d="M2086 2225 c-9 -13 -16 -28 -16 -32 0 -4 8 4 18 18 l17 27 26 -29
c14 -16 23 -32 20 -35 -3 -4 0 -4 7 0 17 10 15 26 -3 26 -9 0 -12 6 -9 15 5
13 8 13 27 0 12 -8 28 -15 37 -15 8 0 -1 8 -20 18 -31 16 -36 17 -47 3 -12
-13 -13 -13 -13 1 0 27 -27 28 -44 3z"/>
<path d="M1617 2226 c-4 -10 -3 -15 3 -11 6 3 10 1 10 -6 0 -7 3 -10 6 -6 3 3
2 13 -4 22 -8 16 -9 16 -15 1z"/>
<path d="M2701 2231 c-11 -7 -9 -10 8 -16 13 -4 25 -4 28 -1 4 3 -1 6 -11 6
-9 0 -14 5 -11 10 8 12 4 12 -14 1z"/>
<path d="M1656 2214 c-10 -25 1 -29 14 -5 6 12 7 21 1 21 -5 0 -12 -7 -15 -16z"/>
<path d="M1710 2226 c0 -2 7 -7 16 -10 8 -3 12 -2 9 4 -6 10 -25 14 -25 6z"/>
<path d="M1950 2220 c0 -5 5 -10 10 -10 6 0 10 5 10 10 0 6 -4 10 -10 10 -5 0
-10 -4 -10 -10z"/>
<path d="M2040 2220 c0 -5 5 -10 10 -10 6 0 10 5 10 10 0 6 -4 10 -10 10 -5 0
-10 -4 -10 -10z"/>
<path d="M2220 2220 c8 -5 22 -9 30 -9 10 0 8 3 -5 9 -27 12 -43 12 -25 0z"/>
<path d="M2287 2213 c4 -9 2 -14 -3 -10 -6 3 -16 -3 -23 -15 -7 -11 -8 -17 -3
-14 6 3 12 3 15 -1 2 -5 2 -3 1 4 -2 6 4 14 12 17 16 6 20 36 4 36 -5 0 -6 -7
-3 -17z"/>
<path d="M2340 2215 c0 -9 6 -18 14 -21 8 -3 14 -11 12 -17 -1 -7 -1 -9 1 -4
3 4 9 4 15 1 5 -3 4 3 -3 14 -7 12 -17 18 -23 15 -5 -4 -7 1 -3 10 3 10 2 17
-3 17 -6 0 -10 -7 -10 -15z"/>
<path d="M1680 2199 c-7 -11 -10 -23 -7 -25 2 -2 9 7 15 21 14 30 7 33 -8 4z"/>
<path d="M1750 2210 c0 -5 5 -10 10 -10 6 0 10 5 10 10 0 6 -4 10 -10 10 -5 0
-10 -4 -10 -10z"/>
<path d="M1910 2211 c0 -10 30 -24 37 -17 3 2 -5 9 -16 16 -12 6 -21 7 -21 1z"/>
<path d="M1713 2204 c4 -4 -1 -13 -11 -20 -14 -11 -15 -15 -3 -26 12 -11 13
-10 7 6 -5 14 -2 17 9 12 9 -3 14 -2 10 3 -3 5 0 11 7 13 7 3 4 7 -7 12 -11 4
-16 4 -12 0z"/>
<path d="M1874 2202 c3 -6 3 -12 -1 -15 -5 -2 -2 -2 5 -1 6 2 12 0 12 -4 0 -4
9 -13 21 -20 12 -8 18 -9 15 -4 -3 6 -3 12 1 15 5 2 2 2 -4 1 -7 -2 -13 0 -13
4 0 4 -9 13 -21 20 -12 8 -18 9 -15 4z"/>
<path d="M2094 2198 c-4 -6 0 -17 10 -23 14 -11 14 -14 1 -25 -8 -7 -12 -16
-9 -21 3 -5 0 -9 -6 -9 -8 0 -10 10 -6 28 5 26 5 26 -6 4 -15 -30 3 -52 26
-32 9 7 13 16 11 21 -3 4 3 12 12 18 11 6 13 11 5 11 -7 0 -10 4 -7 10 3 6 -1
7 -10 4 -11 -5 -14 -2 -9 10 7 18 -1 22 -12 4z"/>
<path d="M2534 2196 c5 -14 2 -17 -9 -12 -9 3 -14 2 -10 -3 3 -5 1 -11 -5 -13
-6 -2 0 -9 12 -17 17 -10 20 -10 11 -1 -10 11 -9 16 5 26 14 11 15 15 3 26
-12 11 -13 10 -7 -6z"/>
<path d="M2574 2199 c-4 -7 0 -17 9 -24 13 -9 14 -15 4 -26 -10 -12 -10 -12 3
-1 20 17 35 15 20 -3 -7 -9 -10 -18 -6 -22 3 -3 6 -1 6 6 0 7 4 10 9 6 20 -11
20 14 1 28 -11 7 -18 16 -15 19 3 3 -1 11 -9 17 -11 9 -16 9 -22 0z m21 -9 c3
-5 1 -10 -4 -10 -6 0 -11 5 -11 10 0 6 2 10 4 10 3 0 8 -4 11 -10z"/>
<path d="M2664 2185 c-9 -14 -14 -28 -11 -32 4 -3 11 6 16 20 5 14 16 27 23
30 9 4 10 6 1 6 -7 1 -20 -10 -29 -24z"/>
<path d="M2739 2189 c-6 -13 -7 -19 -1 -15 6 3 13 0 16 -6 3 -7 3 -2 -1 12 -5
22 -4 23 10 12 13 -11 14 -18 5 -38 -11 -24 -30 -34 -25 -13 1 6 -5 14 -13 16
-12 4 -12 3 -2 -5 8 -5 13 -13 12 -18 -4 -22 20 -12 33 13 12 23 13 32 2 46
-16 22 -22 22 -36 -4z"/>
<path d="M1526 2185 c4 -9 -2 -26 -12 -38 l-19 -22 23 19 c23 20 28 41 12 51
-6 3 -7 -1 -4 -10z"/>
<path d="M1590 2193 c8 -3 18 -11 22 -17 4 -6 10 -7 15 -3 9 10 -16 27 -37 26
-13 -1 -13 -1 0 -6z"/>
<path d="M2230 2189 c0 -5 5 -7 10 -4 6 3 10 8 10 11 0 2 -4 4 -10 4 -5 0 -10
-5 -10 -11z"/>
<path d="M2395 2190 c3 -5 8 -10 11 -10 2 0 4 5 4 10 0 6 -5 10 -11 10 -5 0
-7 -4 -4 -10z"/>
<path d="M2710 2189 c0 -5 5 -7 10 -4 6 3 10 8 10 11 0 2 -4 4 -10 4 -5 0 -10
-5 -10 -11z"/>
<path d="M1770 2180 c0 -5 5 -10 10 -10 6 0 10 5 10 10 0 6 -4 10 -10 10 -5 0
-10 -4 -10 -10z"/>
<path d="M1830 2180 c0 -5 5 -10 10 -10 6 0 10 5 10 10 0 6 -4 10 -10 10 -5 0
-10 -4 -10 -10z"/>
<path d="M1980 2183 c0 -14 39 -38 47 -29 3 3 -3 9 -13 13 -10 3 -22 11 -26
17 -5 8 -8 7 -8 -1z"/>
<path d="M2176 2174 c-4 -9 -4 -19 -1 -22 2 -3 7 3 11 12 4 9 4 19 1 22 -2 3
-7 -3 -11 -12z"/>
<path d="M2308 2183 c6 -2 18 -2 25 0 6 3 1 5 -13 5 -14 0 -19 -2 -12 -5z"/>
<path d="M2450 2178 c0 -9 5 -20 10 -23 13 -8 13 5 0 25 -8 13 -10 13 -10 -2z"/>
<path d="M1496 2163 c-6 -14 -5 -15 5 -6 7 7 10 15 7 18 -3 3 -9 -2 -12 -12z"/>
<path d="M1580 2165 c-7 -9 -8 -15 -2 -15 5 0 12 7 16 15 3 8 4 15 2 15 -2 0
-9 -7 -16 -15z"/>
<path d="M1763 2150 c31 -25 37 -25 37 -2 0 13 -2 14 -9 4 -6 -10 -10 -10 -21
3 -7 8 -17 15 -23 15 -5 0 2 -9 16 -20z"/>
<path d="M1810 2161 c0 -5 5 -13 10 -16 6 -3 10 -2 10 4 0 5 -4 13 -10 16 -5
3 -10 2 -10 -4z"/>
<path d="M1852 2158 c-15 -15 -15 -28 -1 -28 5 0 8 4 5 9 -4 5 0 11 6 14 7 2
10 7 7 10 -3 4 -11 1 -17 -5z"/>
<path d="M1942 2149 c-8 -12 -9 -18 -4 -15 6 3 12 3 15 -1 2 -5 2 -2 1 5 -2 6
1 12 6 12 6 0 10 5 10 10 0 17 -14 11 -28 -11z"/>
<path d="M2207 2155 c-16 -11 -16 -13 -2 -19 9 -3 14 -2 10 3 -3 5 1 11 7 14
7 2 11 7 8 10 -3 3 -13 0 -23 -8z"/>
<path d="M2301 2153 c12 -15 12 -16 -4 -10 -11 4 -16 3 -12 -3 3 -6 -1 -10 -9
-10 -9 0 -15 5 -13 11 1 6 -5 14 -13 16 -12 4 -12 3 -2 -5 8 -5 14 -13 15 -18
2 -11 24 -10 52 2 18 7 19 6 6 -9 -21 -27 -9 -26 19 0 20 20 21 23 5 17 -18
-7 -18 -6 -6 9 7 10 9 17 3 17 -6 0 -13 -6 -16 -12 -5 -10 -7 -10 -12 0 -3 6
-10 12 -16 12 -6 0 -4 -7 3 -17z"/>
<path d="M2410 2161 c0 -5 9 -13 20 -16 11 -3 20 -11 20 -16 0 -6 -4 -8 -9 -4
-6 3 -15 -4 -21 -16 -7 -12 -8 -19 -2 -15 6 3 13 0 16 -6 3 -7 3 -3 0 10 -4
15 -1 22 6 20 24 -6 20 19 -5 36 -14 9 -25 12 -25 7z"/>
<path d="M2550 2160 c0 -5 5 -10 10 -10 6 0 10 5 10 10 0 6 -4 10 -10 10 -5 0
-10 -4 -10 -10z"/>
<path d="M2695 2160 c-8 -13 3 -30 18 -29 9 0 9 2 0 5 -7 3 -9 12 -6 20 6 16
-3 19 -12 4z"/>
<path d="M1592 2144 c-7 -8 -8 -14 -3 -14 10 0 25 19 20 25 -2 1 -10 -3 -17
-11z"/>
<path d="M1620 2139 c-7 -11 -9 -23 -6 -26 3 -3 9 3 13 13 3 10 11 22 17 26 8
5 7 8 -1 8 -7 0 -17 -9 -23 -21z"/>
<path d="M1721 2148 c-1 -20 14 -24 25 -6 4 6 3 8 -4 4 -5 -3 -13 0 -15 6 -3
8 -6 6 -6 -4z"/>
<path d="M1886 2141 c4 -15 2 -21 -4 -17 -6 4 -16 -3 -22 -15 -7 -12 -8 -19
-2 -15 6 3 13 0 16 -6 3 -7 3 -2 0 11 -4 15 -2 21 4 17 6 -4 16 3 22 15 7 12
8 19 2 15 -6 -3 -13 0 -16 6 -3 7 -3 2 0 -11z"/>
<path d="M2151 2144 c0 -11 3 -14 6 -6 3 7 2 16 -1 19 -3 4 -6 -2 -5 -13z"/>
<path d="M2375 2150 c-3 -6 1 -7 9 -4 18 7 21 14 7 14 -6 0 -13 -4 -16 -10z"/>
<path d="M2482 2152 c2 -8 7 -13 12 -12 5 1 13 -4 18 -12 8 -11 9 -11 6 0 -2
8 -7 13 -12 12 -5 -1 -13 4 -18 12 -8 11 -9 11 -6 0z"/>
<path d="M1542 2133 c2 -10 10 -17 17 -15 8 2 11 -5 7 -20 -3 -13 -3 -17 0
-10 3 6 10 9 16 6 6 -4 5 3 -2 15 -6 12 -16 18 -22 15 -7 -5 -9 -1 -5 9 3 10
2 17 -4 17 -6 0 -9 -8 -7 -17z"/>
<path d="M1681 2143 c-1 -6 9 -19 21 -27 12 -9 19 -16 14 -16 -5 0 -3 -6 3
-13 6 -8 7 -18 3 -23 -4 -4 1 -2 11 5 23 18 21 29 -8 43 -13 6 -22 15 -18 21
3 6 1 7 -5 3 -5 -3 -13 0 -15 6 -4 9 -6 10 -6 1z m59 -53 c0 -5 -2 -10 -4 -10
-3 0 -8 5 -11 10 -3 6 -1 10 4 10 6 0 11 -4 11 -10z"/>
<path d="M1985 2140 c3 -5 8 -10 11 -10 2 0 4 5 4 10 0 6 -5 10 -11 10 -5 0
-7 -4 -4 -10z"/>
<path d="M2665 2141 c-3 -5 1 -15 8 -23 8 -7 12 -19 11 -26 -1 -7 0 -8 3 -2 2
5 9 7 15 4 5 -3 4 3 -4 15 -7 12 -16 21 -21 21 -4 0 -5 5 -2 10 3 6 4 10 1 10
-3 0 -7 -4 -11 -9z"/>
<path d="M2166 2123 c-6 -14 -5 -15 5 -6 7 7 10 15 7 18 -3 3 -9 -2 -12 -12z"/>
<path d="M2230 2135 c0 -5 5 -17 10 -25 5 -8 10 -10 10 -5 0 6 -5 17 -10 25
-5 8 -10 11 -10 5z"/>
<path d="M2398 2133 c7 -3 16 -2 19 1 4 3 -2 6 -13 5 -11 0 -14 -3 -6 -6z"/>
<path d="M2543 2133 c-7 -2 -13 -9 -13 -15 0 -6 6 -6 15 2 12 10 18 10 30 0 9
-7 15 -8 15 -2 0 8 -26 25 -33 21 -1 0 -8 -3 -14 -6z"/>
<path d="M1507 2115 c-11 -7 -26 -11 -35 -8 -14 4 -15 3 -3 -5 8 -6 22 -7 30
-3 9 5 22 7 29 5 7 -1 8 0 2 3 -5 2 -8 9 -4 14 7 12 2 11 -19 -6z"/>
<path d="M1650 2106 c-5 -14 -15 -26 -21 -26 -8 0 -7 6 2 18 12 15 12 16 -2 5
-9 -7 -18 -12 -20 -10 -3 1 1 -4 8 -12 10 -12 15 -12 27 -1 9 7 16 19 16 27 0
8 5 11 10 8 6 -4 7 -11 4 -17 -4 -6 0 -14 7 -19 22 -14 36 -10 17 5 -10 7 -15
15 -13 18 3 3 -1 11 -10 18 -12 10 -16 8 -25 -14z"/>
<path d="M1750 2119 c0 -5 5 -7 10 -4 15 9 12 -19 -5 -41 -8 -10 -14 -23 -15
-29 0 -5 10 5 21 23 12 18 18 39 15 47 -6 17 -26 20 -26 4z"/>
<path d="M1821 2113 c7 -10 14 -19 15 -21 1 -2 4 4 8 13 3 9 2 13 -4 10 -6 -3
-10 -1 -10 4 0 6 -5 11 -11 11 -8 0 -7 -6 2 -17z"/>
<path d="M1915 2120 c3 -6 1 -10 -6 -10 -7 0 -10 -3 -6 -6 3 -3 13 -2 22 4 16
8 16 9 1 15 -10 4 -15 3 -11 -3z"/>
<path d="M1970 2122 c0 -5 8 -13 17 -16 12 -5 14 -9 5 -18 -7 -7 -12 -17 -12
-22 0 -6 7 0 16 12 9 13 14 24 13 25 -2 2 -12 9 -21 16 -10 7 -18 9 -18 3z"/>
<path d="M2120 2115 c-7 -8 -9 -15 -4 -15 4 0 -1 -6 -11 -14 -11 -8 -23 -12
-27 -10 -4 2 -10 -1 -14 -7 -5 -8 -8 -8 -14 1 -5 8 -9 7 -13 -5 -4 -9 -3 -13
3 -10 6 3 10 0 10 -7 0 -9 3 -9 10 2 11 18 30 20 50 6 13 -10 13 -9 1 7 -9 11
-10 17 -2 17 6 0 16 -12 22 -26 5 -15 12 -24 16 -21 3 4 -1 17 -10 30 -14 21
-14 24 1 34 13 8 14 14 6 22 -8 9 -14 8 -24 -4z m20 -5 c0 -5 -5 -10 -11 -10
-5 0 -7 5 -4 10 3 6 8 10 11 10 2 0 4 -4 4 -10z"/>
<path d="M2194 2122 c3 -6 0 -13 -6 -16 -7 -3 -3 -3 10 0 15 4 22 1 20 -6 -2
-7 3 -14 10 -15 7 -2 8 -1 2 2 -5 2 -8 9 -5 13 3 5 -4 14 -16 20 -12 7 -19 8
-15 2z"/>
<path d="M2354 2115 c-4 -8 -10 -12 -15 -9 -5 3 -6 -3 -2 -12 4 -11 8 -13 11
-6 2 7 8 10 13 7 5 -4 6 1 3 10 -5 11 -2 14 12 8 12 -4 15 -3 10 5 -10 16 -26
15 -32 -3z"/>
<path d="M2474 2122 c3 -6 3 -12 -1 -15 -5 -2 -2 -2 5 -1 6 2 12 0 12 -4 0 -4
9 -13 21 -20 12 -8 18 -9 15 -4 -3 6 -3 12 1 15 5 2 2 2 -4 1 -7 -2 -13 0 -13
4 0 4 -9 13 -21 20 -12 8 -18 9 -15 4z"/>
<path d="M2622 2112 c-10 -10 -24 -17 -30 -16 -7 1 -8 0 -2 -3 5 -2 7 -9 4
-15 -3 -5 3 -4 14 3 12 7 18 17 15 22 -3 5 5 6 18 3 13 -3 18 -3 11 0 -6 3
-10 10 -6 15 9 15 -5 10 -24 -9z"/>
<path d="M2715 2110 c3 -5 8 -10 11 -10 2 0 4 5 4 10 0 6 -5 10 -11 10 -5 0
-7 -4 -4 -10z"/>
<path d="M1956 2098 c5 -8 2 -9 -9 -5 -24 9 -21 0 4 -14 13 -6 19 -7 15 -1 -3
6 -1 12 6 14 7 3 5 7 -6 11 -11 5 -15 3 -10 -5z"/>
<path d="M2050 2100 c0 -5 5 -10 10 -10 6 0 10 5 10 10 0 6 -4 10 -10 10 -5 0
-10 -4 -10 -10z"/>
<path d="M2266 2098 c3 -4 0 -8 -5 -8 -6 0 -11 -5 -11 -11 0 -8 5 -8 15 1 12
10 18 10 30 0 10 -9 15 -9 15 -1 0 6 -5 11 -11 11 -5 0 -8 4 -5 8 2 4 -4 8
-14 8 -10 0 -16 -4 -14 -8z"/>
<path d="M2550 2102 c0 -4 5 -13 12 -20 6 -6 8 -15 4 -19 -4 -4 -10 -2 -14 4
-5 8 -10 7 -18 -2 -9 -9 -4 -12 26 -12 37 0 38 0 19 20 -10 11 -16 24 -13 29
3 4 0 8 -5 8 -6 0 -11 -4 -11 -8z"/>
<path d="M2155 2090 c-7 -12 5 -40 18 -40 7 0 7 4 -1 12 -17 17 -15 33 3 18 9
-7 15 -8 15 -2 0 13 -28 23 -35 12z"/>
<path d="M1495 2080 c-3 -5 -2 -10 4 -10 5 0 13 5 16 10 3 6 2 10 -4 10 -5 0
-13 -4 -16 -10z"/>
<path d="M1530 2086 c0 -2 7 -9 15 -16 13 -11 14 -10 9 4 -5 14 -24 23 -24 12z"/>
<path d="M1800 2080 c20 -13 33 -13 25 0 -3 6 -14 10 -23 10 -15 0 -15 -2 -2
-10z"/>
<path d="M1886 2073 c-5 -12 -9 -14 -18 -5 -7 7 -17 12 -22 12 -6 0 0 -7 12
-16 13 -9 24 -14 25 -13 2 2 9 12 16 22 7 9 9 17 3 17 -5 0 -13 -8 -16 -17z"/>
<path d="M2010 2071 c-6 -12 -7 -21 -1 -21 10 0 24 30 17 37 -2 3 -9 -5 -16
-16z"/>
<path d="M2447 2075 c-4 -8 -2 -17 3 -20 12 -7 40 5 40 18 0 7 -4 7 -12 -1
-17 -17 -33 -15 -18 3 7 9 8 15 2 15 -5 0 -12 -7 -15 -15z"/>
<path d="M2650 2079 c0 -5 -4 -7 -10 -4 -5 3 -10 2 -10 -3 0 -16 30 -23 48
-12 14 9 12 10 -8 4 -22 -6 -23 -5 -11 10 9 10 10 16 2 16 -6 0 -11 -5 -11
-11z"/>
<path d="M2715 2080 c-13 -6 -15 -9 -5 -9 8 0 22 4 30 9 18 12 2 12 -25 0z"/>
<path d="M1579 2073 c-1 -5 -1 -11 0 -15 2 -12 -37 -9 -44 2 -4 6 -10 8 -15 5
-11 -7 -9 -45 3 -45 5 0 5 9 2 21 -6 18 -5 19 13 8 21 -13 57 -5 47 11 -3 5
-2 10 4 10 15 0 23 -18 11 -25 -5 -3 -10 -10 -10 -16 0 -5 8 -1 18 9 16 15 16
18 2 29 -17 14 -29 16 -31 6z"/>
<path d="M1915 2070 c-3 -5 -1 -10 4 -10 6 0 11 5 11 10 0 6 -2 10 -4 10 -3 0
-8 -4 -11 -10z"/>
<path d="M2206 2063 c2 -7 0 -13 -4 -13 -4 0 -13 -9 -20 -21 -8 -12 -9 -18 -4
-15 6 3 12 3 15 -1 2 -5 2 -2 1 5 -2 6 0 12 4 12 4 0 13 9 20 21 8 12 9 18 4
15 -6 -3 -12 -3 -15 1 -2 5 -2 2 -1 -4z"/>
<path d="M2370 2072 c0 -7 -4 -10 -10 -7 -6 4 -7 -1 -3 -11 4 -12 8 -14 11 -6
3 10 7 10 17 2 10 -8 15 -8 21 1 4 7 3 9 -4 5 -6 -3 -15 2 -21 11 -6 11 -11
13 -11 5z"/>
<path d="M2390 2076 c0 -2 9 -6 20 -9 11 -3 18 -1 14 4 -5 9 -34 13 -34 5z"/>
<path d="M1647 2064 c-8 -8 3 -34 15 -34 6 0 5 6 -2 15 -15 18 1 20 18 3 8 -8
12 -8 12 -1 0 6 -7 14 -16 17 -19 7 -19 7 -27 0z"/>
<path d="M1780 2061 c0 -6 5 -13 11 -16 6 -5 4 -12 -8 -20 -15 -12 -16 -16 -4
-27 12 -11 13 -10 7 6 -5 14 -2 17 9 12 9 -3 13 -2 10 4 -3 6 0 10 7 10 8 0 6
5 -5 11 -9 6 -15 14 -12 20 4 5 1 9 -4 9 -6 0 -11 -4 -11 -9z"/>
<path d="M1945 2061 c3 -5 -1 -11 -7 -14 -7 -2 -11 -7 -8 -10 3 -3 13 0 23 8
16 11 16 13 2 19 -9 3 -14 2 -10 -3z"/>
<path d="M2265 2060 c-3 -6 1 -7 9 -4 18 7 21 14 7 14 -6 0 -13 -4 -16 -10z"/>
<path d="M2330 2049 c7 -11 14 -19 16 -16 7 7 -7 37 -17 37 -6 0 -5 -9 1 -21z"/>
<path d="M1707 2049 c7 -7 15 -10 18 -7 3 3 -2 9 -12 12 -14 6 -15 5 -6 -5z"/>
<path d="M1830 2050 c0 -5 7 -10 16 -10 8 0 12 -5 9 -10 -4 -6 -12 -7 -18 -4
-7 4 -9 4 -5 -1 4 -4 -3 -16 -15 -27 -12 -11 -16 -17 -9 -13 7 4 12 0 12 -9 0
-8 4 -18 10 -21 7 -4 7 3 0 20 -8 21 -7 26 2 22 7 -2 12 -10 10 -16 -1 -7 2
-10 8 -6 8 5 7 11 -1 21 -7 8 -7 14 -1 14 20 0 21 30 2 40 -14 7 -20 7 -20 0z"/>
<path d="M2235 2050 c-3 -5 -1 -10 4 -10 6 0 11 5 11 10 0 6 -2 10 -4 10 -3 0
-8 -4 -11 -10z"/>
<path d="M2310 2042 c9 -18 8 -23 -5 -28 -8 -3 -15 -10 -15 -15 0 -5 9 -4 20
3 24 15 24 19 4 44 -14 18 -15 18 -4 -4z"/>
<path d="M1756 2035 c-9 -26 -7 -32 5 -12 6 10 9 21 6 23 -2 3 -7 -2 -11 -11z"/>
<path d="M1889 2033 c-7 -10 -10 -15 -5 -11 5 4 15 0 23 -8 9 -8 18 -12 22 -9
3 4 -3 11 -13 17 -15 8 -16 12 -5 19 8 5 9 9 3 9 -6 0 -18 -8 -25 -17z"/>
<path d="M1962 2031 c-21 -16 -22 -17 -3 -17 11 0 18 3 15 7 -2 4 2 9 8 12 7
2 11 7 8 10 -3 3 -16 -2 -28 -12z"/>
<path d="M2090 2043 c0 -15 31 -53 43 -53 7 0 4 5 -5 11 -10 5 -18 16 -18 24
0 8 -4 17 -10 20 -5 3 -10 2 -10 -2z"/>
<path d="M2264 2035 c-18 -15 -18 -15 0 -8 13 4 17 3 12 -5 -5 -8 -1 -10 10
-5 11 4 13 8 6 11 -7 2 -10 8 -6 13 8 13 1 11 -22 -6z"/>
<path d="M2409 2033 c-8 -10 -9 -14 -2 -10 6 4 14 3 18 -3 4 -6 10 -8 15 -5 8
5 25 -23 22 -37 -1 -5 3 -8 9 -8 6 0 9 6 6 14 -3 7 0 19 6 25 6 6 7 11 2 11
-5 0 0 7 11 15 10 8 15 14 9 15 -18 0 -38 -18 -31 -28 3 -6 2 -13 -2 -16 -5
-3 -14 6 -20 19 -14 29 -24 31 -43 8z m31 -3 c0 -5 -2 -10 -4 -10 -3 0 -8 5
-11 10 -3 6 -1 10 4 10 6 0 11 -4 11 -10z"/>
<path d="M2626 2025 c19 -29 26 -32 18 -7 -5 14 -3 14 10 -2 9 -11 16 -14 16
-7 0 7 4 9 10 6 6 -3 7 1 4 10 -5 11 -2 14 12 9 16 -6 17 -5 6 7 -11 12 -15
11 -27 -4 -8 -12 -15 -14 -20 -7 -3 5 -11 8 -16 5 -5 -4 -9 -1 -9 4 0 6 -5 11
-10 11 -6 0 -3 -11 6 -25z"/>
<path d="M1630 2029 c0 -5 -5 -7 -11 -3 -8 4 -8 0 0 -15 14 -25 23 -28 14 -4
-4 11 -3 14 5 9 8 -5 10 -2 6 8 -7 18 -14 21 -14 5z"/>
<path d="M2016 2025 c-4 -11 -4 -16 0 -12 4 4 13 -1 20 -11 11 -14 15 -15 26
-3 11 12 10 13 -6 7 -14 -5 -17 -2 -12 9 3 9 2 14 -3 10 -5 -3 -11 0 -13 7 -3
7 -7 4 -12 -7z"/>
<path d="M2540 2030 c0 -6 -12 -15 -26 -21 -15 -5 -24 -12 -21 -16 8 -7 57 24
57 37 0 6 -2 10 -5 10 -3 0 -5 -5 -5 -10z"/>
<path d="M2570 2027 c0 -9 -4 -17 -10 -17 -5 0 -10 -4 -10 -10 0 -5 4 -10 9
-10 12 0 25 39 17 47 -3 4 -6 -1 -6 -10z"/>
<path d="M1562 2009 c12 -10 25 -15 28 -12 3 3 -1 8 -8 10 -6 3 -10 8 -8 12 3
4 -4 7 -15 7 -19 0 -18 -1 3 -17z"/>
<path d="M1690 2020 c0 -5 -6 -8 -12 -6 -7 1 -10 1 -5 -1 4 -3 4 -9 1 -15 -3
-5 3 -4 15 4 22 14 28 28 11 28 -5 0 -10 -4 -10 -10z"/>
<path d="M2072 2016 c7 -8 15 -12 17 -11 5 6 -10 25 -20 25 -5 0 -4 -6 3 -14z"/>
<path d="M2370 2020 c0 -5 5 -10 10 -10 6 0 10 5 10 10 0 6 -4 10 -10 10 -5 0
-10 -4 -10 -10z"/>
<path d="M1990 2013 c1 -14 30 -47 36 -41 3 4 -4 16 -15 27 -12 12 -21 18 -21
14z"/>
<path d="M2152 2005 c4 -21 -32 -47 -39 -27 -5 14 -23 16 -23 3 0 -20 40 -22
64 -4 20 16 21 20 9 32 -12 11 -14 10 -11 -4z"/>
<path d="M2342 2008 c-15 -15 -16 -45 -2 -53 7 -4 9 2 4 19 -5 21 -3 25 9 20
9 -3 13 -13 10 -22 -4 -15 -3 -15 6 -2 6 8 11 11 11 6 0 -5 9 -1 20 9 19 18
20 17 21 -6 1 -19 2 -20 6 -5 7 26 -11 41 -29 23 -11 -12 -17 -12 -31 -2 -9 6
-14 15 -10 18 3 4 4 7 2 7 -3 0 -10 -5 -17 -12z"/>
<path d="M1536 1997 c3 -10 9 -15 12 -12 3 3 0 11 -7 18 -10 9 -11 8 -5 -6z"/>
<path d="M1730 2001 c0 -5 5 -13 10 -16 6 -3 10 -2 10 4 0 5 -4 13 -10 16 -5
3 -10 2 -10 -4z"/>
<path d="M1870 2000 c0 -5 5 -10 10 -10 6 0 10 5 10 10 0 6 -4 10 -10 10 -5 0
-10 -4 -10 -10z"/>
<path d="M2222 1990 c7 -10 14 -18 15 -16 6 6 -9 36 -18 36 -5 0 -4 -9 3 -20z"/>
<path d="M2600 2000 c20 -13 33 -13 25 0 -3 6 -14 10 -23 10 -15 0 -15 -2 -2
-10z"/>
<path d="M1651 1984 c0 -11 3 -14 6 -6 3 7 2 16 -1 19 -3 4 -6 -2 -5 -13z"/>
<path d="M1710 1987 c0 -7 9 -18 20 -25 11 -7 20 -10 20 -7 0 3 -9 14 -20 25
-12 12 -20 15 -20 7z"/>
<path d="M1935 1990 c-3 -5 -12 -7 -20 -3 -8 3 -15 0 -15 -7 0 -6 -6 -8 -12
-5 -7 4 -3 -2 9 -13 12 -11 19 -23 15 -27 -4 -5 -1 -5 6 -1 17 10 15 26 -5 26
-15 0 -10 14 5 16 4 0 15 4 26 9 12 5 21 3 26 -6 5 -7 12 -10 17 -6 8 9 -15
27 -34 27 -6 0 -14 -4 -18 -10z"/>
<path d="M2272 1980 c0 -14 2 -19 5 -12 2 6 2 18 0 25 -3 6 -5 1 -5 -13z"/>
<path d="M1560 1980 c0 -5 5 -10 11 -10 5 0 7 5 4 10 -3 6 -8 10 -11 10 -2 0
-4 -4 -4 -10z"/>
<path d="M1618 1974 c21 -15 22 -17 6 -28 -10 -8 -14 -18 -10 -25 6 -9 11 -9
22 0 7 6 11 15 8 20 -3 5 0 9 7 9 6 0 0 9 -14 20 -14 11 -29 20 -33 20 -5 0 2
-7 14 -16z m22 -38 c0 -3 -4 -8 -10 -11 -5 -3 -10 -1 -10 4 0 6 5 11 10 11 6
0 10 -2 10 -4z"/>
<path d="M1761 1974 c0 -11 3 -14 6 -6 3 7 2 16 -1 19 -3 4 -6 -2 -5 -13z"/>
<path d="M2173 1973 c-13 -8 -23 -20 -23 -25 0 -5 10 1 22 12 20 18 24 19 34
5 16 -22 26 -18 12 5 -15 24 -16 24 -45 3z"/>
<path d="M2300 1975 c-7 -9 -10 -18 -7 -21 3 -3 10 4 17 15 13 25 8 27 -10 6z"/>
<path d="M2520 1980 c0 -5 5 -10 10 -10 6 0 10 5 10 10 0 6 -4 10 -10 10 -5 0
-10 -4 -10 -10z"/>
<path d="M2563 1973 c-28 -19 -29 -37 -3 -70 11 -14 20 -21 20 -16 0 6 -7 16
-15 23 -15 12 -22 55 -7 47 4 -2 15 4 25 15 21 22 10 23 -20 1z"/>
<path d="M2634 1979 c-3 -6 -2 -15 4 -21 6 -6 12 -6 17 3 5 8 4 10 -3 5 -7 -4
-12 -3 -12 3 0 5 6 12 13 14 9 4 9 6 0 6 -6 1 -15 -4 -19 -10z"/>
<path d="M1586 1953 c-4 -9 -2 -21 4 -27 8 -8 9 -6 5 7 -4 10 -2 17 4 17 6 0
11 5 11 10 0 16 -17 11 -24 -7z"/>
<path d="M1690 1963 c0 -4 5 -15 10 -23 8 -13 10 -13 10 2 0 9 -4 20 -10 23
-5 3 -10 3 -10 -2z"/>
<path d="M1788 1956 c-10 -7 -14 -17 -10 -21 4 -5 -1 -5 -10 -2 -10 4 -18 2
-18 -3 0 -16 30 -12 36 4 3 8 11 14 17 12 7 -1 9 -1 4 1 -4 3 -5 9 -1 14 7 12
2 11 -18 -5z"/>
<path d="M1854 1959 c-4 -7 0 -17 10 -25 11 -8 13 -14 6 -19 -5 -3 -8 -11 -5
-16 4 -5 1 -9 -4 -9 -6 0 -11 -5 -11 -11 0 -6 13 -1 29 11 28 19 30 19 40 3 6
-10 11 -13 11 -6 0 6 -11 20 -25 31 -13 11 -22 22 -19 24 2 3 -2 11 -10 17
-11 9 -16 9 -22 0z m21 -9 c3 -5 1 -10 -4 -10 -6 0 -11 5 -11 10 0 6 2 10 4
10 3 0 8 -4 11 -10z m20 -40 c-3 -5 -11 -10 -16 -10 -6 0 -7 5 -4 10 3 6 11
10 16 10 6 0 7 -4 4 -10z"/>
<path d="M1948 1963 c7 -3 18 -16 23 -30 5 -14 12 -23 16 -20 8 9 -25 57 -40
56 -9 0 -8 -2 1 -6z"/>
<path d="M2032 1954 c-6 -11 -11 -13 -16 -5 -9 14 -26 15 -26 1 0 -5 5 -9 11
-7 6 1 14 -4 17 -12 3 -8 0 -11 -6 -7 -17 10 -5 -36 14 -53 9 -9 14 -10 10 -3
-4 6 -3 12 3 12 5 0 13 9 16 20 4 11 11 17 17 14 6 -4 8 -2 4 4 -3 6 -2 13 4
17 5 3 10 11 10 18 0 6 -11 -3 -23 -21 -13 -17 -28 -28 -32 -24 -5 4 -5 2 -1
-5 3 -6 2 -14 -3 -17 -16 -10 -19 19 -5 39 8 10 14 15 14 11 0 -5 7 -3 15 4 8
7 12 16 9 21 -8 14 -22 11 -32 -7z m28 2 c0 -3 -4 -8 -10 -11 -5 -3 -10 -1
-10 4 0 6 5 11 10 11 6 0 10 -2 10 -4z"/>
<path d="M2386 1955 c-11 -8 -16 -18 -11 -22 4 -5 10 -3 12 4 2 7 10 11 16 9
7 -1 9 -1 4 1 -4 3 -5 9 -1 14 7 12 2 11 -20 -6z"/>
<path d="M2447 1953 c4 -11 3 -14 -5 -9 -8 5 -10 1 -5 -10 4 -11 8 -13 11 -6
2 7 8 9 14 6 6 -4 5 2 -1 15 -14 25 -23 28 -14 4z"/>
<path d="M2500 1955 c10 -12 10 -18 0 -30 -9 -10 -9 -15 -1 -15 6 0 11 5 11
11 0 5 4 8 8 5 4 -2 8 4 8 14 0 10 -4 16 -8 14 -4 -3 -8 0 -8 5 0 6 -5 11 -11
11 -8 0 -8 -5 1 -15z"/>
<path d="M2594 1962 c3 -6 0 -13 -6 -16 -7 -3 -2 -3 11 0 16 4 21 3 17 -5 -4
-6 -2 -11 3 -11 19 0 12 19 -10 31 -13 6 -19 7 -15 1z"/>
<path d="M2190 1949 c0 -5 -5 -7 -11 -3 -8 4 -7 0 1 -15 6 -12 16 -19 22 -15
6 4 8 -2 4 -17 -3 -13 -3 -18 0 -11 3 6 10 9 16 6 6 -4 5 3 -2 15 -6 12 -16
19 -22 15 -6 -4 -8 1 -3 15 3 11 4 21 1 21 -3 0 -6 -5 -6 -11z"/>
<path d="M2247 1944 c6 -15 23 -19 23 -5 0 5 -7 11 -14 14 -10 4 -13 1 -9 -9z"/>
<path d="M2476 1947 c3 -10 9 -15 12 -12 3 3 0 11 -7 18 -10 9 -11 8 -5 -6z"/>
<path d="M1673 1943 c4 -6 0 -13 -7 -16 -19 -7 -41 -47 -26 -47 5 0 10 8 10
17 0 15 2 14 15 -3 19 -26 19 -35 -2 -27 -13 4 -11 0 4 -11 13 -10 20 -23 17
-31 -4 -8 -1 -15 5 -15 6 0 10 3 9 8 -3 14 14 42 22 37 5 -3 11 -1 14 4 3 5
16 7 29 4 17 -4 15 -1 -8 12 -28 15 -30 15 -42 -1 -7 -10 -13 -22 -13 -27 0
-4 -5 -5 -10 -2 -6 4 -8 10 -5 15 3 5 -2 21 -11 35 -15 23 -15 25 0 25 19 0
21 16 4 26 -6 4 -8 3 -5 -3z m67 -67 c0 -3 -4 -8 -10 -11 -5 -3 -10 -1 -10 4
0 6 5 11 10 11 6 0 10 -2 10 -4z"/>
<path d="M2106 1939 c2 -4 -2 -9 -8 -12 -7 -2 -11 -7 -8 -10 3 -3 16 2 28 12
21 16 22 17 3 17 -11 0 -18 -3 -15 -7z"/>
<path d="M2310 1940 c0 -5 5 -10 10 -10 6 0 10 5 10 10 0 6 -4 10 -10 10 -5 0
-10 -4 -10 -10z"/>
<path d="M1836 1925 c7 -18 6 -18 -9 -6 -11 9 -17 10 -17 2 0 -6 5 -11 11 -11
5 0 7 -4 4 -10 -3 -5 -2 -10 3 -10 15 0 24 32 12 44 -8 8 -9 5 -4 -9z"/>
<path d="M2560 1936 c0 -2 7 -9 15 -16 9 -7 15 -8 15 -2 0 5 -7 12 -15 16 -8
3 -15 4 -15 2z"/>
<path d="M1930 1923 c0 -4 5 -15 10 -23 8 -13 10 -13 10 2 0 9 -4 20 -10 23
-5 3 -10 3 -10 -2z"/>
<path d="M2120 1910 l-25 -21 28 12 c15 7 27 16 27 21 0 11 -1 10 -30 -12z"/>
<path d="M2420 1915 c15 -18 -1 -20 -18 -3 -8 8 -12 8 -12 1 0 -13 28 -25 40
-18 11 7 1 35 -12 35 -6 0 -5 -6 2 -15z"/>
<path d="M1700 1910 c-8 -5 -11 -12 -7 -17 5 -4 11 -3 15 3 4 6 14 14 22 17
13 5 13 5 0 6 -8 0 -22 -3 -30 -9z"/>
<path d="M1790 1909 c0 -5 -5 -7 -11 -3 -8 4 -8 0 0 -15 7 -11 16 -21 21 -21
5 0 8 -6 6 -12 -1 -7 -1 -10 1 -5 3 4 9 4 15 1 5 -3 4 3 -3 14 -7 12 -17 18
-22 15 -5 -3 -6 4 -2 16 3 11 4 21 1 21 -3 0 -6 -5 -6 -11z"/>
<path d="M2235 1910 c3 -5 8 -10 11 -10 2 0 4 5 4 10 0 6 -5 10 -11 10 -5 0
-7 -4 -4 -10z"/>
<path d="M2260 1899 c-7 -11 -9 -23 -6 -26 3 -3 9 3 13 13 3 10 11 22 17 26 8
5 7 8 -1 8 -7 0 -17 -9 -23 -21z"/>
<path d="M2329 1908 c-1 -7 -1 -17 0 -22 1 -5 -5 -6 -14 -2 -11 4 -19 -2 -25
-19 -5 -14 -15 -25 -21 -25 -8 0 -7 6 2 18 12 15 12 16 -2 5 -9 -7 -19 -11
-23 -8 -3 3 0 -3 8 -12 12 -13 18 -14 30 -3 9 7 16 18 16 25 0 21 34 12 48
-12 14 -25 27 -29 37 -13 4 6 11 7 17 4 6 -4 5 -10 -3 -15 -10 -6 -10 -9 -2
-9 6 0 19 10 27 22 9 12 16 19 16 14 0 -5 6 -3 13 3 8 6 18 7 23 3 4 -4 2 1
-5 11 -18 23 -29 21 -43 -8 -12 -27 -30 -25 -22 3 5 15 4 15 -6 -1 -9 -14 -15
-16 -26 -6 -8 6 -14 8 -14 3 0 -4 -6 1 -14 11 -8 11 -12 25 -9 32 3 7 2 13 -1
13 -3 0 -7 -6 -7 -12z m131 -32 c0 -3 -4 -8 -10 -11 -5 -3 -10 -1 -10 4 0 6 5
11 10 11 6 0 10 -2 10 -4z m-85 -26 c3 -5 1 -10 -4 -10 -6 0 -11 5 -11 10 0 6
2 10 4 10 3 0 8 -4 11 -10z"/>
<path d="M2356 1912 c6 -4 14 -16 17 -26 4 -10 10 -16 13 -13 9 8 -15 47 -29
47 -8 0 -9 -3 -1 -8z"/>
<path d="M2463 1912 c-9 -6 -7 -11 7 -20 12 -7 20 -8 20 -2 0 5 -5 10 -11 10
-5 0 -7 5 -4 10 7 12 4 12 -12 2z"/>
<path d="M1750 1901 c0 -6 4 -13 10 -16 6 -3 7 1 4 9 -7 18 -14 21 -14 7z"/>
<path d="M2160 1899 c0 -5 -5 -7 -11 -3 -7 4 -7 -2 1 -17 18 -34 24 -38 15 -9
-7 22 -6 23 9 11 10 -9 16 -10 16 -2 0 6 -5 11 -11 11 -5 0 -7 5 -4 10 3 6 1
10 -4 10 -6 0 -11 -5 -11 -11z"/>
<path d="M2530 1899 c8 -8 21 -21 29 -29 12 -12 11 -10 0 9 -9 14 -22 27 -30
29 -11 3 -11 2 1 -9z"/>
<path d="M1980 1893 c0 -7 5 -15 10 -18 6 -4 8 -11 5 -16 -4 -5 -1 -9 4 -9 15
0 13 11 -4 34 -8 11 -15 15 -15 9z"/>
<path d="M2070 1890 c0 -5 5 -10 10 -10 6 0 10 5 10 10 0 6 -4 10 -10 10 -5 0
-10 -4 -10 -10z"/>
<path d="M1891 1867 c-5 -14 -16 -27 -23 -30 -9 -4 -10 -6 -1 -6 15 -1 48 47
40 56 -4 3 -11 -6 -16 -20z"/>
<path d="M1948 1876 c-10 -7 -14 -17 -10 -21 4 -5 -1 -5 -10 -2 -10 4 -18 2
-18 -3 0 -16 30 -12 36 4 3 8 11 14 17 12 7 -1 9 -1 4 1 -4 3 -5 9 -1 14 7 12
2 11 -18 -5z"/>
<path d="M2110 1880 c-11 -7 -11 -10 -2 -10 7 0 10 -4 7 -10 -3 -6 1 -7 10 -4
11 5 14 2 9 -12 -6 -16 -5 -17 7 -6 12 11 11 15 -3 26 -10 7 -15 16 -11 19 9
10 0 8 -17 -3z"/>
<path d="M2508 1879 c-20 -11 -24 -29 -7 -29 5 0 7 5 3 12 -5 8 -2 9 10 5 10
-4 21 -7 24 -7 4 0 -3 -8 -15 -18 -17 -13 -20 -20 -12 -32 9 -13 10 -12 5 2
-3 11 2 19 15 23 23 8 25 23 4 31 -8 4 -12 10 -9 15 7 11 3 11 -18 -2z"/>
<path d="M2218 1867 c-7 -8 -19 -12 -26 -11 -7 1 -8 0 -2 -3 5 -2 7 -9 4 -15
-3 -5 3 -4 15 4 11 7 23 18 25 25 7 17 1 16 -16 0z"/>
<path d="M2050 1860 c0 -5 5 -10 10 -10 6 0 10 5 10 10 0 6 -4 10 -10 10 -5 0
-10 -4 -10 -10z"/>
<path d="M1826 1839 c-19 -19 -19 -19 1 -38 20 -19 20 -19 20 20 0 21 -1 39
-1 38 -1 0 -10 -9 -20 -20z m14 -19 c0 -5 -4 -10 -10 -10 -5 0 -10 5 -10 10 0
6 5 10 10 10 6 0 10 -4 10 -10z"/>
<path d="M2310 1850 c0 -5 5 -10 10 -10 6 0 10 5 10 10 0 6 -4 10 -10 10 -5 0
-10 -4 -10 -10z"/>
<path d="M1648 1843 c6 -2 9 -10 6 -15 -4 -7 -2 -8 5 -4 13 9 5 26 -12 25 -9
0 -8 -2 1 -6z"/>
<path d="M1735 1840 c-8 -13 3 -30 21 -30 8 0 14 -4 14 -10 0 -5 5 -10 11 -10
8 0 8 5 -1 15 -10 12 -10 18 0 30 9 10 9 15 1 15 -6 0 -11 -5 -11 -11 0 -8 -4
-8 -14 0 -10 8 -16 9 -21 1z m20 -10 c3 -5 1 -10 -4 -10 -6 0 -11 5 -11 10 0
6 2 10 4 10 3 0 8 -4 11 -10z"/>
<path d="M1970 1841 c0 -6 5 -11 11 -11 5 0 7 -4 4 -10 -3 -5 -1 -10 4 -10 16
0 13 16 -4 30 -10 9 -15 9 -15 1z"/>
<path d="M2014 1839 c-3 -6 -3 -13 0 -16 3 -4 6 0 6 8 1 10 4 9 15 -5 7 -10
18 -15 24 -12 5 4 14 -2 20 -11 6 -10 11 -13 11 -6 0 6 -5 15 -10 18 -6 4 -8
11 -5 16 9 13 26 11 23 -2 -2 -6 3 -14 10 -16 17 -6 15 12 -3 27 -13 10 -19
10 -35 -5 -11 -10 -20 -13 -20 -8 0 15 -28 24 -36 12z"/>
<path d="M2454 1839 c-3 -6 -2 -15 4 -21 12 -12 32 -2 31 15 0 9 -2 9 -6 0 -2
-7 -9 -13 -14 -13 -4 0 -6 7 -3 15 7 17 -2 20 -12 4z"/>
<path d="M1950 1829 c0 -5 -5 -7 -11 -3 -8 4 -8 0 0 -15 7 -11 16 -21 21 -21
5 0 8 -6 6 -12 -1 -7 -1 -10 1 -5 3 4 9 4 15 1 5 -3 4 3 -3 14 -7 12 -17 18
-22 15 -5 -3 -6 4 -2 16 3 11 4 21 1 21 -3 0 -6 -5 -6 -11z"/>
<path d="M2230 1831 c0 -6 5 -11 11 -11 5 0 7 -4 4 -10 -3 -6 1 -7 10 -4 9 4
15 7 13 8 -2 1 -11 8 -20 15 -12 9 -18 10 -18 2z"/>
<path d="M1710 1825 c0 -5 5 -17 10 -25 5 -8 10 -10 10 -5 0 6 -5 17 -10 25
-5 8 -10 11 -10 5z"/>
<path d="M1890 1820 c0 -5 -7 -10 -17 -10 -9 0 -14 -3 -10 -6 8 -8 47 5 47 17
0 5 -4 9 -10 9 -5 0 -10 -4 -10 -10z"/>
<path d="M2150 1821 c0 -7 -5 -9 -12 -5 -6 4 -8 3 -5 -3 4 -6 -5 -15 -18 -21
-29 -14 -31 -25 -7 -43 9 -7 14 -9 10 -5 -4 5 -3 15 3 23 6 7 8 13 4 13 -4 0
3 9 16 19 13 11 21 23 17 27 -5 4 -8 2 -8 -5z m-30 -45 c0 -3 -4 -8 -10 -11
-5 -3 -10 -1 -10 4 0 6 5 11 10 11 6 0 10 -2 10 -4z"/>
<path d="M2210 1818 c0 -9 5 -20 10 -23 13 -8 13 5 0 25 -8 13 -10 13 -10 -2z"/>
<path d="M2287 1824 c-8 -8 3 -34 15 -34 6 0 5 6 -2 15 -7 8 -8 15 -2 15 5 0
15 -7 22 -15 7 -8 18 -15 24 -15 6 0 0 9 -14 20 -27 21 -33 23 -43 14z"/>
<path d="M2340 1820 c8 -5 20 -10 25 -10 6 0 3 5 -5 10 -8 5 -19 10 -25 10 -5
0 -3 -5 5 -10z"/>
<path d="M2434 1820 c3 -8 9 -23 12 -32 4 -10 10 -18 16 -18 9 0 0 20 -22 50
-10 13 -11 13 -6 0z"/>
<path d="M1917 1803 c-13 -12 -7 -23 11 -22 10 0 12 3 4 6 -6 2 -10 9 -6 14 6
10 0 12 -9 2z"/>
<path d="M2010 1799 c0 -5 -4 -7 -10 -4 -6 3 -7 -1 -4 -10 4 -9 7 -15 8 -13 1
2 8 11 15 21 9 11 10 17 2 17 -6 0 -11 -5 -11 -11z"/>
<path d="M2160 1795 c-7 -8 -9 -15 -4 -15 5 0 1 -5 -9 -11 -9 -6 -15 -14 -12
-19 3 -5 -3 -14 -14 -19 -17 -9 -22 -5 -40 32 -12 23 -21 35 -21 27 0 -17 47
-90 57 -90 3 0 3 3 0 7 -4 3 1 12 11 19 9 7 19 9 22 4 3 -5 14 -1 25 7 20 15
20 15 -2 9 -12 -4 -24 -2 -28 4 -3 5 1 10 10 10 11 0 15 5 12 15 -4 8 -2 17 3
20 6 4 10 0 10 -8 0 -24 28 -41 43 -28 8 6 18 7 23 3 5 -4 5 -3 1 3 -5 6 -12
10 -15 10 -4 0 -14 4 -22 10 -13 8 -13 7 -1 -8 9 -11 10 -17 2 -17 -6 0 -16
11 -21 25 -11 29 -13 30 -30 10z"/>
<path d="M2390 1801 c8 -5 18 -7 22 -5 4 3 8 -1 8 -9 0 -8 7 -20 15 -27 13
-11 14 -9 1 16 -9 15 -25 29 -38 31 -17 2 -19 1 -8 -6z"/>
<path d="M1700 1790 c0 -5 0 -13 1 -16 0 -4 -5 -11 -13 -16 -11 -8 -10 -9 1
-6 13 4 28 48 16 48 -3 0 -5 -4 -5 -10z"/>
<path d="M1744 1785 c-4 -8 -11 -12 -18 -8 -6 4 -5 -1 3 -10 7 -9 21 -16 30
-16 13 1 13 2 -1 6 -14 4 -16 8 -8 24 6 10 8 19 5 19 -3 0 -8 -7 -11 -15z"/>
<path d="M1806 1783 c2 -7 -1 -13 -6 -13 -5 0 -14 -10 -21 -21 -6 -13 -7 -19
-1 -15 6 3 13 0 16 -6 3 -7 3 -2 0 11 -3 13 -2 21 3 18 5 -3 15 3 22 15 7 11
8 17 3 14 -6 -3 -12 -3 -15 1 -2 5 -2 2 -1 -4z"/>
<path d="M2270 1789 c0 -5 -5 -7 -11 -3 -8 4 -8 0 0 -15 14 -25 23 -28 14 -4
-4 11 -3 14 5 9 8 -5 10 -2 6 8 -7 18 -14 21 -14 5z"/>
<path d="M1890 1778 c0 -9 5 -20 10 -23 13 -8 13 5 0 25 -8 13 -10 13 -10 -2z"/>
<path d="M2384 1778 c3 -15 26 -23 26 -8 0 6 -4 9 -9 6 -5 -4 -12 -1 -14 4 -3
6 -4 5 -3 -2z"/>
<path d="M2308 1773 c6 -2 18 -2 25 0 6 3 1 5 -13 5 -14 0 -19 -2 -12 -5z"/>
<path d="M1850 1760 c0 -5 5 -10 11 -10 5 0 8 -4 4 -9 -3 -5 0 -13 5 -16 7 -5
5 -12 -7 -20 -15 -12 -16 -16 -4 -27 12 -11 13 -10 7 6 -5 14 -2 17 9 12 9 -3
13 -2 10 4 -3 6 -1 10 6 10 7 0 4 7 -7 16 -16 13 -16 15 -1 10 24 -8 21 -1 -8
18 -14 9 -25 12 -25 6z"/>
<path d="M1922 1750 c-16 -26 -15 -30 4 -30 8 0 12 -5 9 -10 -4 -6 -12 -7 -18
-4 -7 4 -9 4 -5 -1 5 -5 -1 -14 -12 -22 -11 -8 -19 -22 -19 -31 1 -14 2 -14 6
2 4 15 7 16 15 5 8 -11 9 -10 4 4 -6 19 9 23 20 5 4 -6 -1 -17 -11 -25 -11 -7
-13 -13 -6 -13 7 0 9 -4 6 -10 -4 -6 1 -7 11 -3 12 4 14 8 6 11 -10 3 -10 7
-1 18 9 11 9 18 1 26 -8 8 -6 15 5 26 14 14 14 17 0 27 -15 10 -15 13 1 28 9
9 12 17 7 17 -6 0 -16 -9 -23 -20z"/>
<path d="M2015 1760 c-8 -13 5 -13 25 0 13 8 13 10 -2 10 -9 0 -20 -4 -23 -10z"/>
<path d="M2346 1754 c-8 -21 -8 -24 5 -24 5 0 7 5 4 10 -3 6 -1 10 4 10 6 0
11 5 11 10 0 16 -17 12 -24 -6z"/>
<path d="M1975 1750 c-4 -6 -11 -8 -16 -5 -5 4 -9 1 -9 -4 0 -15 11 -13 34 4
11 8 15 15 9 15 -7 0 -15 -5 -18 -10z"/>
<path d="M2286 1745 c-3 -8 -1 -15 4 -15 6 0 10 7 10 15 0 8 -2 15 -4 15 -2 0
-6 -7 -10 -15z"/>
<path d="M1706 1734 c-4 -9 -4 -19 -1 -22 3 -3 5 0 5 6 0 7 3 11 8 11 4 -1 14
-1 22 0 13 1 13 2 0 11 -21 14 -27 12 -34 -6z"/>
<path d="M1825 1740 c3 -5 1 -10 -4 -10 -6 0 -11 -5 -11 -11 0 -8 6 -7 16 2
15 12 16 11 10 -11 -6 -20 -5 -22 4 -8 11 18 4 48 -12 48 -5 0 -6 -4 -3 -10z"/>
<path d="M2045 1741 c3 -6 -3 -14 -12 -20 -11 -6 -13 -11 -5 -11 7 0 10 -4 7
-10 -3 -6 1 -7 10 -4 11 5 14 2 9 -12 -6 -16 -5 -17 7 -6 12 11 11 15 -4 27
-12 8 -14 15 -8 20 14 8 14 25 0 25 -5 0 -8 -4 -4 -9z"/>
<path d="M2222 1741 c-11 -7 -10 -9 3 -14 9 -4 13 -3 10 2 -3 5 3 12 12 14 13
3 14 5 3 6 -8 0 -21 -3 -28 -8z"/>
<path d="M2375 1740 c-3 -5 -3 -10 2 -10 4 0 -3 -6 -16 -13 -14 -6 -26 -19
-29 -27 -3 -10 0 -9 10 3 7 10 24 19 36 20 22 1 65 37 45 37 -6 0 -14 -7 -17
-16 -3 -8 -11 -12 -17 -8 -8 4 -7 9 2 15 10 6 10 9 2 9 -6 0 -15 -4 -18 -10z"/>
<path d="M1979 1719 c-13 -11 -19 -18 -14 -16 14 7 38 -20 25 -28 -13 -8 -13
-25 0 -25 6 0 9 5 8 11 -2 6 2 13 7 15 6 2 11 -5 11 -16 0 -11 -6 -20 -13 -20
-8 0 -16 -7 -19 -15 -4 -8 -11 -12 -18 -9 -6 4 -4 -1 5 -10 17 -19 63 -31 53
-14 -4 6 -1 9 7 6 8 -3 13 -11 12 -17 -2 -6 2 -11 7 -11 13 0 13 17 -1 25 -6
5 -4 12 8 21 17 13 16 16 -19 48 -20 19 -33 38 -30 42 4 4 2 4 -5 0 -6 -3 -14
-2 -18 4 -3 5 1 10 9 10 9 0 16 5 16 10 0 14 -5 13 -31 -11z m81 -88 c0 -12
-58 -39 -68 -32 -13 8 -3 25 20 34 12 4 15 12 11 24 -6 17 -5 16 15 -1 12 -11
22 -22 22 -25z"/>
<path d="M2070 1725 c0 -5 5 -17 10 -25 5 -8 10 -10 10 -5 0 6 -5 17 -10 25
-5 8 -10 11 -10 5z"/>
<path d="M2174 1718 c-5 -8 -2 -9 10 -5 14 6 17 3 12 -8 -3 -9 -2 -14 3 -10 5
3 11 0 13 -7 3 -7 7 -5 11 6 4 9 3 15 -2 12 -5 -3 -11 1 -15 9 -6 18 -22 19
-32 3z"/>
<path d="M2260 1715 c10 -12 10 -18 0 -30 -9 -10 -9 -15 -1 -15 6 0 11 5 11
11 0 5 4 8 8 5 4 -2 8 4 8 14 0 10 -4 16 -8 14 -4 -3 -8 0 -8 5 0 6 -5 11 -11
11 -8 0 -8 -5 1 -15z"/>
<path d="M2307 1723 c-13 -12 -7 -40 11 -54 14 -11 15 -11 5 1 -15 17 -17 54
-3 45 6 -3 10 -1 10 4 0 12 -13 14 -23 4z"/>
<path d="M1750 1709 c0 -5 5 -7 10 -4 6 3 10 2 10 -2 0 -5 9 -14 21 -21 12 -8
18 -9 15 -4 -3 6 -1 13 4 15 6 3 5 4 -2 3 -7 -1 -19 3 -26 11 -16 16 -32 17
-32 2z"/>
<path d="M1732 1682 c1 -26 3 -30 10 -18 5 10 5 23 -1 34 -8 14 -10 10 -9 -16z"/>
<path d="M2130 1700 c0 -5 5 -10 10 -10 6 0 10 5 10 10 0 6 -4 10 -10 10 -5 0
-10 -4 -10 -10z"/>
<path d="M2236 1693 c-6 -14 -5 -15 5 -6 7 7 10 15 7 18 -3 3 -9 -2 -12 -12z"/>
<path d="M1950 1680 c0 -5 5 -10 10 -10 6 0 10 5 10 10 0 6 -4 10 -10 10 -5 0
-10 -4 -10 -10z"/>
<path d="M2094 1676 c-3 -9 -10 -13 -15 -10 -5 3 -9 0 -9 -5 0 -6 4 -11 9 -11
13 0 35 29 28 37 -4 3 -9 -2 -13 -11z"/>
<path d="M1763 1670 c2 -8 -3 -20 -11 -26 -13 -9 -13 -12 -1 -19 8 -5 11 -5 7
0 -4 4 0 14 10 21 13 9 19 9 25 1 6 -9 8 -8 5 1 -2 8 -7 13 -12 12 -5 -1 -13
4 -18 12 -8 10 -9 10 -5 -2z"/>
<path d="M1821 1673 c0 -6 -4 -20 -7 -30 -5 -14 -4 -15 5 -7 7 7 11 20 8 30
-3 11 -5 14 -6 7z"/>
<path d="M2122 1660 c0 -14 2 -19 5 -12 2 6 2 18 0 25 -3 6 -5 1 -5 -13z"/>
<path d="M2145 1669 c-11 -16 -1 -19 13 -3 7 8 8 14 3 14 -5 0 -13 -5 -16 -11z"/>
<path d="M2181 1670 c-1 -8 3 -21 8 -29 11 -18 3 -43 -12 -34 -6 3 -7 1 -3 -5
19 -31 37 15 20 53 -7 17 -13 23 -13 15z"/>
<path d="M2211 1649 c12 -23 24 -25 15 -4 -6 17 9 21 17 5 3 -6 4 -5 3 2 -1 7
-12 14 -24 14 -18 1 -20 -2 -11 -17z"/>
<path d="M2280 1666 c0 -2 7 -7 16 -10 8 -3 12 -2 9 4 -6 10 -25 14 -25 6z"/>
<path d="M1854 1638 c-4 -6 0 -16 9 -23 9 -7 14 -15 10 -19 -4 -4 1 -4 12 0
11 5 14 9 7 12 -7 2 -10 8 -7 13 4 5 -1 6 -10 3 -11 -5 -14 -2 -9 10 7 18 -1
22 -12 4z"/>
<path d="M1950 1640 c0 -5 5 -10 10 -10 6 0 10 5 10 10 0 6 -4 10 -10 10 -5 0
-10 -4 -10 -10z"/>
<path d="M2090 1635 c-11 -13 -10 -14 4 -9 9 3 16 10 16 15 0 13 -6 11 -20 -6z"/>
<path d="M2147 1639 c-9 -6 -15 -15 -11 -21 4 -6 -2 -8 -17 -4 -13 3 -18 3
-11 0 6 -3 9 -10 6 -16 -4 -6 3 -5 15 2 12 6 19 16 15 22 -4 6 2 8 17 4 13 -3
18 -3 11 0 -6 3 -10 10 -6 15 7 11 4 11 -19 -2z"/>
<path d="M1770 1620 c0 -5 5 -10 10 -10 6 0 10 5 10 10 0 6 -4 10 -10 10 -5 0
-10 -4 -10 -10z"/>
<path d="M1830 1624 c0 -6 7 -19 16 -30 14 -18 14 -18 3 6 -14 31 -19 36 -19
24z"/>
<path d="M1802 1616 c3 -4 -2 -16 -13 -27 -20 -20 -26 -45 -9 -34 6 3 10 12
10 20 0 7 7 15 15 19 9 3 15 0 15 -9 0 -8 5 -15 10 -15 13 0 -4 36 -23 46 -6
4 -9 4 -5 0z"/>
<path d="M1756 1597 c3 -10 9 -15 12 -12 3 3 0 11 -7 18 -10 9 -11 8 -5 -6z"/>
<path d="M1920 1600 c-8 -5 -12 -11 -9 -14 3 -3 14 1 25 9 21 16 8 20 -16 5z"/>
<path d="M2070 1599 c0 -5 5 -7 10 -4 6 3 10 2 10 -4 0 -6 10 -16 23 -22 21
-12 21 -11 -3 14 -27 28 -40 34 -40 16z"/>
<path d="M2150 1590 c0 -5 5 -10 11 -10 5 0 7 5 4 10 -3 6 -8 10 -11 10 -2 0
-4 -4 -4 -10z"/>
<path d="M1873 1578 c-13 -6 -23 -15 -23 -20 0 -5 11 -1 25 8 37 24 35 30 -2
12z"/>
<path d="M1937 1568 c2 -5 13 -8 23 -8 10 0 21 3 23 8 3 4 -8 7 -23 7 -15 0
-26 -3 -23 -7z"/>
<path d="M1807 1553 c4 -11 3 -14 -5 -9 -8 5 -10 1 -5 -10 4 -11 8 -13 11 -6
2 7 8 9 14 6 6 -4 5 2 -1 15 -14 25 -23 28 -14 4z"/>
<path d="M1882 1551 c-21 -16 -22 -17 -3 -17 11 0 18 3 15 7 -2 4 2 9 8 12 7
2 11 7 8 10 -3 3 -16 -2 -28 -12z"/>
<path d="M2024 1555 c11 -8 24 -15 30 -15 5 0 1 7 -10 15 -10 8 -23 14 -29 14
-5 0 -1 -6 9 -14z"/>
<path d="M2070 1560 c0 -5 5 -10 10 -10 6 0 10 5 10 10 0 6 -4 10 -10 10 -5 0
-10 -4 -10 -10z"/>
<path d="M1916 1545 c-9 -26 -7 -32 5 -12 6 10 9 21 6 23 -2 3 -7 -2 -11 -11z"/>
<path d="M1990 1550 c0 -5 5 -10 11 -10 5 0 7 5 4 10 -3 6 -8 10 -11 10 -2 0
-4 -4 -4 -10z"/>
<path d="M1946 1539 c2 -4 -2 -9 -8 -11 -7 -3 3 -5 22 -5 19 0 29 2 22 5 -6 2
-10 7 -8 11 3 4 -4 7 -14 7 -10 0 -17 -3 -14 -7z"/>
<path d="M1826 1517 c-18 -19 -20 -19 -32 -2 -12 16 -13 16 -11 -2 1 -25 37
-25 56 0 18 25 10 28 -13 4z"/>
<path d="M1855 1509 c-4 -6 -4 -13 -1 -16 3 -4 6 -1 6 6 0 9 9 11 28 7 20 -5
23 -4 12 4 -20 13 -37 13 -45 -1z"/>
</g>
</svg>
